<?xml version="1.0" encoding="UTF-8" standalone="no"?>
<svg
   width="250"
   height="250"
   viewBox="0 0 250 250"
   preserveAspectRatio="xMidYMid meet"
   version="1.1"
   id="svg140"
   sodipodi:docname="epd-icon-circle.svg"
   inkscape:version="1.1.1 (3bf5ae0d25, 2021-09-20)"
   inkscape:export-filename="D:\projects\gaepd-brand\epd-icon\epd-icon-circle.png"
   inkscape:export-xdpi="96"
   inkscape:export-ydpi="96"
   xmlns:inkscape="http://www.inkscape.org/namespaces/inkscape"
   xmlns:sodipodi="http://sodipodi.sourceforge.net/DTD/sodipodi-0.dtd"
   xmlns:xlink="http://www.w3.org/1999/xlink"
   xmlns="http://www.w3.org/2000/svg"
   xmlns:svg="http://www.w3.org/2000/svg">
  <defs
     id="defs144" />
  <sodipodi:namedview
     id="namedview142"
     pagecolor="#ffffff"
     bordercolor="#666666"
     borderopacity="1.0"
     inkscape:pageshadow="2"
     inkscape:pageopacity="0.0"
     inkscape:pagecheckerboard="0"
     showgrid="false"
     inkscape:zoom="2.5186676"
     inkscape:cx="138.76384"
     inkscape:cy="155.43933"
     inkscape:window-width="1920"
     inkscape:window-height="1017"
     inkscape:window-x="1912"
     inkscape:window-y="-8"
     inkscape:window-maximized="1"
     inkscape:current-layer="svg140" />
  <g
     id="EPD_Logo"
     transform="matrix(1.4805319,0,0,1.4805296,20.513371,14.999512)">
    <defs
       id="defs3">
      <path
         id="ga_outline"
         d="m 19.064,15.302 c 0.044,1.469 0.274,2.572 0.504,2.48 0.184,-0.138 0.322,0.598 0.183,1.608 -0.091,1.01 0.046,1.745 0.229,1.606 0.23,-0.136 0.367,0.597 0.23,1.607 -0.092,1.011 0.045,1.746 0.275,1.607 0.184,-0.137 0.321,0.459 0.184,1.378 -0.093,0.918 0,1.516 0.23,1.378 0.276,-0.138 0.367,0.459 0.229,1.377 -0.091,0.918 -0.046,1.561 0.137,1.47 0.414,-0.275 0.963,5.647 0.596,6.292 -0.23,0.321 -0.092,0.367 0.275,0.136 0.412,-0.274 0.506,0.094 0.367,1.517 -0.092,1.01 -0.046,1.792 0.139,1.699 0.412,-0.275 1.421,8.404 1.053,9.002 -0.23,0.366 -0.137,0.412 0.276,0.182 0.414,-0.274 0.505,0.094 0.367,1.516 -0.092,1.01 -0.046,1.791 0.138,1.654 0.367,-0.184 0.963,4.18 1.055,7.485 0,1.286 0.183,2.25 0.413,2.113 0.184,-0.092 0.322,0.368 0.321,1.102 0,0.689 0.184,1.976 0.412,2.801 0.276,0.828 0.276,1.378 0.138,1.287 -0.183,-0.138 -0.366,0.183 -0.366,0.643 0,0.459 0.183,0.733 0.458,0.597 0.229,-0.184 0.321,0.597 0.184,1.928 -0.185,1.332 -0.093,1.929 0.136,1.562 0.277,-0.458 0.414,-0.183 0.414,0.827 0,0.781 0.184,1.607 0.459,1.747 0.229,0.136 0.458,0.503 0.458,0.732 0,0.276 -0.275,0.322 -0.55,0.138 -0.46,-0.276 -0.46,-0.231 -0.046,0.367 0.321,0.368 0.413,0.872 0.229,1.057 -0.183,0.23 -0.045,0.23 0.321,0 0.506,-0.274 0.596,-0.138 0.415,0.598 -0.184,0.642 -0.093,0.917 0.182,0.733 0.322,-0.229 0.415,0.093 0.276,0.874 -0.138,0.734 -0.046,1.102 0.23,0.918 0.275,-0.184 0.366,0.183 0.229,0.963 -0.139,0.689 -0.14,1.104 0,0.966 0.229,-0.23 1.01,0.963 1.974,2.984 0.275,0.642 0.689,1.514 0.919,1.929 0.229,0.504 0.229,1.285 -0.093,2.066 -0.414,1.103 -0.322,1.378 0.688,2.205 0.643,0.551 1.194,1.148 1.194,1.423 0,0.275 -0.874,1.24 -1.975,2.158 -1.929,1.608 -2.159,2.203 -2.159,5.097 -0.046,0.736 -0.46,2.064 -0.966,2.894 -0.688,1.057 -0.918,2.113 -0.78,3.306 0.092,1.01 -0.047,1.699 -0.23,1.56 -0.23,-0.137 -0.185,0.184 0.091,0.644 0.275,0.506 0.367,1.057 0.23,1.194 -0.139,0.138 0,0.367 0.32,0.598 0.367,0.23 0.46,0.138 0.184,-0.322 -0.275,-0.505 -0.229,-0.551 0.229,-0.092 0.368,0.321 0.642,1.286 0.642,2.157 0.047,0.874 0.23,1.471 0.459,1.288 0.229,-0.138 0.277,0.229 0.139,0.873 -0.184,0.596 -0.322,1.285 -0.322,1.469 0,0.229 -0.184,0.275 -0.368,0.137 -0.183,-0.091 -0.412,0.23 -0.412,0.781 -0.093,0.827 0,0.874 0.366,0.322 0.414,-0.551 0.459,-0.506 0.185,0.229 -0.598,1.883 -1.059,4.915 -0.783,5.833 0.184,0.734 0.092,0.871 -0.413,0.551 -0.415,-0.23 -0.368,0 0.184,0.734 1.422,2.021 3.718,7.624 4.315,10.564 0.596,3.075 0.596,3.075 7.622,3.444 3.582,0.185 7.118,0.415 7.899,0.461 0.78,0.044 3.856,0.276 6.889,0.416 3.029,0.183 6.245,0.414 7.117,0.505 0.873,0.092 4.087,0.322 7.118,0.461 3.031,0.138 7.99,0.461 11.02,0.69 4.778,0.368 12.355,0.829 18.37,1.151 1.24,0.045 1.791,0.275 1.698,0.688 -0.092,0.321 0.093,1.196 0.415,1.929 0.411,1.012 0.411,1.425 -0.093,2.067 -0.458,0.504 -0.458,0.642 -0.045,0.413 0.321,-0.183 0.55,-0.093 0.549,0.322 0,0.414 0.552,0.644 1.608,0.644 1.332,0 1.608,-0.184 1.654,-0.965 0,-0.55 0.184,-2.02 0.368,-3.352 0.229,-1.516 0.185,-2.297 -0.092,-2.112 -0.275,0.183 -0.367,-0.14 -0.23,-0.689 0.185,-0.551 0.093,-0.919 -0.137,-0.735 -0.23,0.138 -0.413,-0.184 -0.413,-0.735 0,-0.645 0.184,-0.874 0.598,-0.645 0.367,0.278 0.367,0.141 -0.047,-0.411 -1.01,-1.241 -0.136,-2.938 1.425,-2.664 0.183,0 0.322,-0.274 0.322,-0.642 0,-0.415 0.458,-0.689 1.194,-0.689 0.641,0 1.055,0.183 0.917,0.367 -0.091,0.183 0.229,0.413 0.781,0.413 0.55,0.047 1.055,0.323 1.147,0.6 0.091,0.228 0.368,0.319 0.597,0.183 0.275,-0.138 0.688,-0.045 1.01,0.185 0.964,0.78 5.051,1.469 5.693,0.919 0.322,-0.277 0.46,-0.688 0.276,-0.918 -0.551,-0.967 -0.458,-3.675 0.185,-4.319 0.596,-0.549 0.551,-0.642 -0.045,-0.642 -1.057,0 -0.918,-0.597 0.414,-1.836 0.873,-0.827 1.01,-1.193 0.598,-1.469 -0.46,-0.277 -0.46,-0.368 0,-0.368 0.321,0 0.458,-0.229 0.321,-0.46 -0.781,-1.285 -0.642,-3.581 0.321,-5.6 1.012,-2.067 2.665,-3.629 2.022,-1.883 -0.275,0.642 -0.186,0.688 0.229,0.275 0.551,-0.551 0.137,-1.699 -0.504,-1.286 -0.23,0.138 -0.322,-0.644 -0.229,-1.701 0.091,-1.101 0.413,-2.02 0.688,-2.112 0.368,-0.137 0.368,-0.366 0,-0.782 -0.597,-0.687 0.184,-1.375 1.562,-1.375 0.597,0 0.917,-0.367 1.011,-1.286 0.045,-0.688 -0.093,-1.24 -0.322,-1.24 -0.275,0 -0.321,-0.229 -0.138,-0.503 0.184,-0.368 0.413,-0.322 0.688,0.09 0.229,0.369 0.413,0.414 0.413,0.185 0,-0.275 -0.228,-0.736 -0.503,-1.012 -0.644,-0.642 1.147,-1.928 2.525,-1.791 1.607,0.186 1.47,-1.515 -0.184,-2.066 -1.606,-0.597 -2.112,-1.698 -1.149,-2.663 0.507,-0.505 0.69,-0.551 0.69,-0.138 0,0.321 0.183,0.505 0.415,0.368 0.229,-0.139 0.962,0.046 1.698,0.413 1.423,0.734 2.572,0.369 1.423,-0.459 -1.055,-0.734 -0.964,-1.469 0.14,-1.837 0.504,-0.137 0.871,-0.504 0.779,-0.779 -0.183,-1.057 -1.469,-2.205 -2.479,-2.205 -1.47,0 -2.571,-1.286 -2.341,-2.802 0.138,-0.689 0.046,-1.194 -0.183,-1.056 -0.185,0.136 -0.369,-0.277 -0.369,-0.919 0,-0.643 0.229,-1.287 0.459,-1.423 0.276,-0.184 0.092,-0.597 -0.413,-1.056 -0.505,-0.414 -1.009,-1.379 -1.102,-2.067 -0.184,-1.563 -2.34,-3.95 -4.086,-4.548 -1.516,-0.551 -1.882,-1.653 -1.928,-5.694 -0.045,-1.929 -0.229,-2.756 -0.551,-2.617 -0.458,0.183 -1.882,-2.802 -1.699,-3.537 0.369,-1.699 0.323,-2.067 -0.552,-2.067 -0.503,0 -0.871,-0.275 -0.78,-0.596 0.046,-0.368 -0.091,-0.505 -0.321,-0.321 -0.963,0.595 -4.179,-1.654 -5.969,-4.18 -1.01,-1.424 -1.745,-2.755 -1.653,-2.939 0.138,-0.184 -0.136,-0.321 -0.596,-0.275 -0.597,0.045 -0.827,-0.367 -0.916,-1.746 -0.094,-1.01 -0.507,-2.066 -0.874,-2.341 -0.414,-0.323 -0.597,-0.735 -0.459,-1.011 0.137,-0.23 -0.644,-0.918 -1.792,-1.471 -1.103,-0.551 -1.929,-1.239 -1.791,-1.469 0.183,-0.23 0,-0.275 -0.367,-0.138 -0.782,0.275 -2.342,-2.387 -1.837,-3.169 0.138,-0.275 0.045,-0.321 -0.229,-0.137 -0.321,0.184 -0.552,0.09 -0.552,-0.185 0,-0.643 -2.156,-2.663 -3.809,-3.49 -0.736,-0.414 -1.148,-0.918 -0.965,-1.194 0.184,-0.321 0.138,-0.367 -0.183,-0.184 -0.597,0.366 -2.938,-1.516 -2.572,-2.113 0.139,-0.23 0.046,-0.321 -0.184,-0.275 -0.274,0.091 -0.504,-0.046 -0.551,-0.322 -0.045,-0.275 -0.459,-1.101 -0.963,-1.882 -0.459,-0.781 -0.689,-1.561 -0.504,-1.746 0.183,-0.183 0.137,-0.321 -0.138,-0.275 -1.102,0.229 -1.653,-0.046 -1.563,-0.826 0.139,-0.965 -0.411,-2.343 -1.33,-3.399 -0.368,-0.458 -0.55,-1.101 -0.368,-1.515 0.139,-0.414 0.092,-0.597 -0.183,-0.459 -0.551,0.321 -1.516,-1.516 -1.195,-2.296 0.277,-0.734 -1.101,-1.331 -3.167,-1.378 -0.872,0 -1.332,-0.23 -1.24,-0.597 0.047,-0.368 -0.091,-0.506 -0.321,-0.368 -0.229,0.138 -1.011,-0.322 -1.744,-1.102 -0.689,-0.735 -1.423,-1.378 -1.608,-1.378 -0.871,0 -3.994,-2.619 -4.04,-3.353 0,-1.562 1.24,-3.766 3.079,-5.419 1.01,-0.917 1.974,-1.928 2.158,-2.205 0.229,-0.366 -7.302,-0.506 -28.839,-0.51 L 18.97,12.596 Z" />
    </defs>
    <clipPath
       id="ga_clippath">
      <use
         xlink:href="#ga_outline"
         overflow="hidden"
         id="use5"
         x="0"
         y="0"
         width="100%"
         height="100%" />
    </clipPath>
    <path
       id="sky"
       clip-path="url(#ga_clippath)"
       fill-rule="evenodd"
       clip-rule="evenodd"
       fill="#c8e3e8"
       d="m 6.465,0.214 c 47.379,0.009 94.756,0.021 142.135,0.004 0.902,0 1.105,41.372 1.1,42.276 -0.043,8.063 -0.028,16.126 -0.029,24.19 -2.013,0.709 -2.952,2.556 -4.246,4.027 -0.11,0.125 -0.071,0.383 -0.102,0.582 -0.059,0.365 -0.205,0.655 -0.519,0.9 -1.732,1.357 -2.716,3.499 -4.751,4.542 -0.803,0.413 -1.077,1.282 -1.458,1.954 -0.877,1.545 -2.678,1.056 -3.881,2.066 -1.218,1.022 -3.077,1.215 -4.863,1.154 -1.458,-0.051 -2.934,-0.011 -4.404,-0.051 -0.839,-0.023 -1.815,0.221 -2.493,-0.12 -1.969,-0.997 -4.086,-1.794 -5.803,-3.204 -2.252,-1.847 -4.381,-3.844 -6.546,-5.797 -0.38,-0.345 -0.776,-0.645 -1.275,-0.504 -1.043,0.295 -1.149,-0.265 -1.049,-1.052 0.058,-0.474 0.181,-0.942 0.216,-1.417 0.034,-0.468 0.176,-1.077 -0.351,-1.305 -1.1,-0.478 -1.649,-1.483 -2.423,-2.276 -0.432,-0.447 -0.927,-1.267 -1.462,-0.044 -0.11,0.252 -0.392,0.205 -0.643,0.143 -1.373,-0.333 -2.896,-0.236 -3.918,-1.521 -0.27,-0.34 -0.732,-0.317 -1.189,-0.362 C 97.016,64.25 95.41,65.1 94.022,63.938 93.845,63.79 93.638,63.9 93.477,64.036 c -1.074,0.896 -2.069,0.511 -3.052,-0.183 -0.386,-0.272 -0.805,-0.708 -1.29,-0.427 -1.031,0.599 -2.188,0.326 -3.269,0.56 -0.716,0.154 -1.635,0.317 -2.241,-0.096 -1.468,-1.012 -3.32,-0.795 -4.803,-1.683 -0.29,-0.172 -0.664,-0.15 -0.918,0.056 -0.868,0.708 -1.884,0.544 -2.873,0.558 -0.477,0.01 -0.969,-0.069 -1.364,0.311 -0.608,0.584 -1.328,0.492 -2.028,0.261 -1.229,-0.403 -2.548,-0.281 -3.763,-0.613 -1.124,-0.305 -2.037,0.554 -3.089,0.293 -1.861,-0.461 -3.769,-0.135 -5.667,-0.413 -2.028,-0.297 -4.128,-0.499 -6.216,-0.325 -0.496,0.04 -1.011,-0.022 -1.371,-0.344 -1.589,-1.417 -3.494,-1.122 -5.36,-1.057 -0.226,-0.303 -0.576,-0.207 -0.871,-0.294 -1.325,-0.39 -2.73,0.118 -4.017,-0.329 -0.87,-0.298 -1.635,-0.522 -2.531,-0.085 -0.421,0.206 -1.096,0.185 -0.774,-0.618 0.229,-0.57 -0.02,-0.559 -0.427,-0.664 -0.925,-0.24 -1.801,-0.344 -2.653,0.228 -0.582,0.391 -1.054,0.282 -1.341,-0.401 -0.41,-0.976 -1.302,-1.763 -1.141,-2.968 0.038,-0.297 -0.184,-0.635 -0.465,-0.613 -1.508,0.121 -2.996,-0.696 -4.504,-0.1 -1.051,0.417 -2.147,0.413 -3.178,0.107 -1.474,-0.433 -2.932,-0.959 -2.703,-3.029 0.063,-0.57 -0.213,-1.302 -0.956,-1.327 -1.592,-0.056 -3.223,-0.348 -4.771,0.167 -1.075,0.357 -2.05,-0.01 -3.056,-0.121 C 12.202,50.822 12.009,50.329 11.978,49.725 11.892,47.973 9.417,46.756 7.934,47.757 7.286,48.196 6.641,48.245 6.007,47.979 5.105,47.602 4.209,47.347 3.218,47.375 2.655,47.393 2.379,47.235 2.621,46.486 3.119,44.949 4.016,43.795 5.297,42.853 5.793,42.49 6.368,0.93 6.465,0.214" />
    <circle
       id="sun"
       clip-path="url(#ga_clippath)"
       fill="#f9e04b"
       stroke="#ffffff"
       stroke-width="0.5"
       stroke-miterlimit="10"
       cx="46.358002"
       cy="58.812"
       r="14.523" />
    <polygon
       id="water"
       clip-path="url(#ga_clippath)"
       fill-rule="evenodd"
       clip-rule="evenodd"
       fill="#5aafd1"
       points="76.067,99.799 101.941,97.199 137.123,96.274 137.857,151.931 15,151.909 13.892,102.581 " />
    <path
       clip-path="url(#ga_clippath)"
       fill-rule="evenodd"
       clip-rule="evenodd"
       fill="#b0c494"
       d="m 149.667,86.903 c -0.593,0.118 -0.697,-0.354 -0.862,-0.751 -0.491,0.234 -0.178,0.773 -0.479,1.082 -0.439,0.19 -0.3,-0.885 -0.908,-0.462 -0.031,0.022 -0.412,-0.503 -0.392,0.15 0.009,0.248 -0.109,0.59 -0.335,0.568 -0.55,-0.05 -1.104,-0.624 -1.621,0.076 -0.818,-0.982 -1.45,0.31 -2.255,0.21 -0.652,-0.081 -1.396,0.752 -1.982,-0.248 -0.074,-0.13 -0.284,-0.095 -0.429,0.012 -1.135,0.835 -2.295,0.783 -3.517,0.162 -0.339,-0.171 -0.156,0.329 -0.31,0.439 -0.347,0.248 -0.362,1.443 -1.17,0.417 -0.048,-0.062 -0.278,-0.078 -0.297,-0.047 -0.835,1.549 -2.247,0.594 -3.333,0.629 -0.895,0.028 -1.762,-0.315 -2.648,0.239 -0.277,0.175 -0.778,0.063 -1.161,-0.008 -2.443,-0.442 -4.89,-0.221 -7.342,-0.24 -1.681,-0.011 -3.534,0.371 -5.218,-0.556 -0.279,-0.153 -1.371,-0.104 -1.579,0.095 -0.699,0.659 -1.475,0.398 -2.211,0.523 -0.134,-0.012 -0.267,-0.022 -0.399,-0.036 0.031,-0.475 -0.326,-0.673 -0.644,-0.901 -0.179,0.419 -0.832,0.563 -0.685,1.176 -0.579,-0.395 -1.201,-0.351 -1.834,-0.184 -0.387,-0.763 -1.107,-0.753 -1.705,0.023 -0.168,-0.075 -0.336,-0.15 -0.503,-0.227 0.277,-1.069 -0.509,-1.447 -1.25,-1.623 -0.82,-0.194 -1.38,0.228 -1.399,1.174 -0.004,0.174 -0.156,0.348 -0.239,0.521 -1.022,0.449 -1.212,-0.422 -1.551,-1.119 -0.226,0.582 -0.09,1.301 -0.927,1.247 l -0.017,0.002 c -0.025,-0.049 -0.058,-0.091 -0.098,-0.127 -0.006,-0.422 0.082,-0.854 -0.194,-1.389 -0.076,0.426 -0.13,0.723 -0.186,1.045 -0.291,-0.21 -0.467,-0.454 -0.527,-0.789 -0.053,-0.289 0.381,-0.835 -0.27,-0.81 -0.471,0.016 -0.293,0.57 -0.362,0.898 -0.034,0.165 -0.079,0.305 -0.319,0.341 -0.197,-0.252 -0.401,-0.748 -0.623,-0.755 -1.116,-0.044 -1.057,-0.855 -1.176,-1.581 -0.141,-0.853 -0.525,-1.677 -0.265,-2.582 0.085,-0.289 -0.156,-0.417 -0.415,-0.47 0.239,-0.922 0.478,-1.847 0.719,-2.771 0.062,-0.24 0.172,-0.52 0.458,-0.425 0.303,0.102 0.169,0.395 0.087,0.609 -0.233,0.595 0.105,0.959 0.458,1.374 0.54,0.629 0.972,0.847 1.54,0.01 0.422,-0.622 1.59,-0.518 1.754,-1.596 0,0.361 0.08,0.746 -0.014,1.081 -0.336,1.207 0.788,2.014 0.813,3.125 0.006,0.268 0.341,0.29 0.573,0.119 0.17,-0.122 0.413,-0.263 0.481,-0.005 0.352,1.334 0.904,0.148 1.353,0.078 0.189,0.651 0.402,1.781 0.538,1.771 1.114,-0.074 1.572,1.065 2.517,1.211 0.629,0.096 0.987,-0.162 1.05,-0.736 0.555,-0.26 0.913,1.513 1.467,0.053 0.103,0.038 0.204,0.074 0.305,0.115 1.561,0.646 3.17,0.618 4.797,0.348 0.087,0.288 0.245,0.505 0.556,0.575 0.115,0 0.322,0.018 0.327,-0.005 0.246,-1.212 1,-0.726 1.492,-0.336 0.598,0.475 1.169,0.421 1.763,0.207 1.034,-0.377 2.037,0.182 3,0.271 1.307,0.12 2.449,-0.287 3.659,-0.369 0.861,-0.057 1.435,-0.151 1.381,0.912 0.479,0.142 0.679,-1.771 1.211,-0.101 0.112,0.355 0.443,0.285 0.689,0.079 0.331,-0.277 0.728,-0.521 0.946,-0.873 0.304,-0.493 0.561,-0.387 0.769,-0.025 0.48,0.831 0.916,0.763 1.587,0.156 0.741,-0.673 1.799,-0.472 2.647,-0.391 1.331,0.125 1.497,-0.578 1.542,-1.699 0.529,0.41 1.009,1.145 1.529,-0.049 0.092,1.004 0.488,1.743 1.261,1.151 0.909,-0.696 1.696,-0.366 2.554,-0.2 0.487,0.095 0.879,0.257 1.125,-0.447 0.137,-0.39 1.063,-0.55 1.148,-0.422 0.802,1.203 1.652,-0.447 2.419,0.097 0.124,0.086 0.243,0.019 0.243,-0.129 0.006,-1.95 1.64,-2.006 2.897,-2.5 z m -45.842,-0.327 c -0.007,0.051 -0.012,0.101 -0.018,0.152 0.019,-0.023 0.051,-0.044 0.055,-0.07 0.002,-0.025 -0.024,-0.054 -0.037,-0.082"
       id="path11" />
    <g
       id="reeds-1"
       clip-path="url(#ga_clippath)"
       fill-rule="evenodd"
       clip-rule="evenodd"
       fill="#3b5a2a"
       stroke="#3b5a2a"
       stroke-width="0.5"
       stroke-miterlimit="10">
      <path
         d="m 31.274,82.271 c -0.093,0.241 -0.308,0.25 -0.515,0.274 -0.555,-0.31 -0.206,-0.781 -0.21,-1.187 0.9,-0.22 0.896,0.279 0.725,0.913"
         id="path13" />
      <path
         d="m 81.324,100.868 c 0.881,-0.047 1.764,-0.021 2.646,-0.027 2.179,-0.019 3.248,-1.546 2.76,-3.678 -0.38,-1.649 -1.123,-3.04 -2.195,-4.316 -0.502,-0.6 -0.929,-1.242 -1.197,-2.036 -0.38,-1.131 -1.646,-1.314 -2.572,-1.395 -0.911,-0.08 -1.329,-0.482 -1.765,-1.089 -0.745,0.823 -1.741,0.939 -2.757,1.007 -0.316,0.02 -0.651,-0.013 -0.945,0.084 -0.84,0.275 -0.992,-0.168 -0.966,-0.847 -0.281,0.212 -0.541,0.472 -0.851,0.625 -0.823,0.398 -1.513,0.478 -1.36,-0.77 -1.156,1.234 -0.865,-0.642 -1.413,-0.646 -0.413,1.168 -1.678,1.607 -3.158,1.097 -0.281,-0.097 -0.129,0.24 -0.2,0.242 -0.397,0.015 -0.737,0.769 -1.183,0.102 -0.25,-0.534 -0.497,-1.068 -0.747,-1.603 -0.192,-0.062 -0.41,-0.139 -0.455,0.16 -0.188,1.263 -0.764,1.5 -2.099,1.419 -0.896,-0.055 -2.03,0.103 -2.952,0.072 -0.739,-0.026 -1.693,-0.132 -2.48,-0.448 -0.321,-0.127 -0.203,-0.788 -0.735,-0.814 l -0.003,-0.004 c 0.125,0.579 0.123,1.113 -0.557,1.351 -0.28,0.097 -0.326,-0.11 -0.343,-0.324 -0.074,0.014 -0.144,-0.001 -0.208,-0.042 -1.064,0.09 -2.112,0.214 -3.199,0.063 -0.496,-0.067 -1.235,-0.427 -1.69,0.331 -0.068,0.116 -0.634,0.118 -0.764,-0.02 -1.01,-1.076 -2.512,-0.586 -3.411,-0.435 -1.241,0.209 -2.315,-0.586 -3.458,-0.12 -0.979,0.401 -1.641,-0.157 -2.248,-0.821 -0.016,0.1 -0.031,0.201 -0.046,0.302 -0.016,0.165 -0.044,0.166 -0.082,0.004 -0.019,-0.078 -0.04,-0.157 -0.06,-0.235 -0.664,0.004 -1.293,0.353 -1.972,0.189 l -0.028,0.042 c -0.027,0.163 -0.065,0.177 -0.114,0.008 -0.071,-0.11 -0.141,-0.221 -0.211,-0.331 -1.509,-0.252 -2.912,0.702 -4.457,0.348 -0.953,-0.218 -1.487,-0.715 -1.773,-1.698 -0.211,0.458 -0.098,0.987 -0.598,1.342 -0.295,-0.935 -0.913,-1.402 -1.914,-1.258 -0.194,0.027 -0.234,-0.163 -0.205,-0.336 -0.017,-0.066 -0.035,-0.13 -0.054,-0.196 -0.209,0.415 -0.417,0.827 -0.62,1.231 -0.385,-0.056 -0.275,-0.49 -0.564,-0.621 -0.4,0.113 -0.164,0.702 -0.677,0.813 -0.08,-0.375 -0.167,-0.776 -0.251,-1.18 l -0.031,-0.071 c -0.504,0.202 -1.078,0.238 -1.38,0.84 -0.093,0.189 -0.642,0.531 -0.724,0.334 -0.306,-0.739 -0.47,0.667 -0.841,-0.003 -0.206,-0.37 -0.769,-0.551 -0.649,-1.139 -0.033,-0.82 -0.357,-0.902 -0.926,-0.367 -0.049,0.468 0,0.961 -0.416,1.435 -0.163,-0.408 -0.296,-0.636 -0.848,-0.723 -0.62,-0.098 -1.185,-0.124 -1.8,-0.072 -0.471,0.041 -0.13,0.761 -0.632,0.649 -0.496,-0.11 -1.207,-0.011 -0.884,-1.164 -1.184,1.85 -2.281,1.922 -3.21,0.47 -0.032,0.57 -0.795,0.765 -0.863,0.705 -0.557,-0.501 -1.278,-0.965 -0.989,-1.952 -0.356,0.404 -0.25,0.856 -0.326,1.27 0.057,0.454 -0.276,0.612 -0.556,0.779 C 11.73,87.046 11.976,85.672 10.764,86.719 10.465,86.977 9.665,86.704 9.071,86.84 8.652,86.936 9.024,86.289 8.714,86.123 8.28,86.184 8.506,86.803 8.086,86.886 7.857,86.854 7.91,86.659 7.884,86.518 7.831,86.219 7.936,85.842 7.5,85.74 7.103,85.647 6.815,85.932 6.752,86.204 6.417,87.641 4.985,87.415 4.139,87.634 3.144,87.89 4.342,87 4.036,86.676 L 4.005,86.637 C 2.729,86.528 3.346,85.278 2.839,84.704 c -0.063,0.387 -0.033,0.824 -0.215,1.142 -0.171,0.296 -0.395,0.789 -0.931,0.069 -0.294,-0.393 -0.37,-0.8 -0.6,-1.157 -0.234,-0.365 -0.418,0.17 -0.661,0.191 l -0.003,19.497 12.191,0.002 c -4.063,0.356 -8.124,0.591 -12.191,0.24 v 2.51 c 5.528,-0.393 11.169,-0.768 16.629,-1.573 -1.741,-0.003 -3.483,-0.001 -5.225,-0.002 -0.903,-0.001 -1.81,0 -2.714,0 -10e-4,-0.116 -10e-4,-0.232 -10e-4,-0.348 l 10.178,10e-4 c 1.126,-0.194 2.244,-0.404 3.346,-0.646 0.488,-0.066 0.975,-0.117 1.463,-0.179 -0.115,-0.243 -0.455,-0.509 0.183,-0.592 1.046,-0.135 2.079,-0.072 3.113,-0.078 0.786,-0.003 1.573,0.002 2.36,0.003 16.659,-1.78 33.316,-2.146 49.973,-2.729 0.494,-0.329 1.064,-0.158 1.59,-0.187 z m -34.62,0.856 c 3.224,-0.398 6.182,-0.41 9.156,-0.256 -2.955,-0.042 -5.906,0.507 -9.156,0.256 z"
         id="path15" />
      <path
         d="m 148.805,86.152 c -0.491,0.234 -0.178,0.773 -0.479,1.082 -0.439,0.19 -0.3,-0.885 -0.908,-0.462 -0.032,0.022 -0.412,-0.503 -0.392,0.149 0.009,0.249 -0.109,0.591 -0.335,0.569 -0.55,-0.05 -1.104,-0.624 -1.621,0.076 -0.818,-0.982 -1.449,0.31 -2.255,0.21 -0.652,-0.081 -1.397,0.752 -1.982,-0.248 -0.074,-0.129 -0.284,-0.094 -0.428,0.013 -1.136,0.835 -2.296,0.783 -3.518,0.162 -0.339,-0.171 -0.156,0.329 -0.31,0.439 -0.347,0.248 -0.362,1.443 -1.17,0.417 -0.048,-0.062 -0.279,-0.078 -0.297,-0.047 -0.835,1.549 -2.247,0.594 -3.333,0.629 -0.895,0.028 -1.762,-0.314 -2.648,0.239 -0.277,0.176 -0.778,0.063 -1.161,-0.008 -2.443,-0.442 -4.89,-0.221 -7.343,-0.24 -1.68,-0.011 -3.533,0.371 -5.217,-0.556 -0.279,-0.152 -1.371,-0.104 -1.579,0.095 -0.699,0.659 -1.475,0.398 -2.211,0.523 0.023,0.591 0.436,0.917 0.855,1.228 2.025,1.498 2.394,2.791 1.673,5.207 -0.194,0.648 -0.322,1.382 -0.151,2.11 0.139,0.597 -0.161,0.908 -0.775,0.908 -0.914,-0.001 -1.827,0 -3.005,0 0.632,0.459 1.113,0.24 1.547,0.372 -0.299,0.312 -0.729,-0.011 -1.051,0.253 0.018,0.021 0.04,0.029 0.06,0.045 4.131,-0.373 8.26,-0.818 12.393,-1.368 1.489,-0.214 2.979,-0.321 4.47,-0.38 0.424,-0.073 0.843,-0.087 1.256,-0.051 4.83,-0.056 9.659,0.637 14.49,1.815 -0.055,-0.238 -0.223,-0.385 -0.565,-0.417 -0.307,-0.03 -0.823,-0.065 -0.185,-0.491 0.257,-0.173 0.187,-0.38 -0.063,-0.405 -1.661,-0.167 -1.545,-1.693 -1.948,-2.699 -0.691,-1.728 -0.414,-3.566 0.24,-5.246 0.393,-1.007 1.573,-1.094 2.514,-0.965 1.849,0.254 3.533,-0.391 5.257,-0.791 0.394,-0.091 0.694,0.066 1.038,0.029 v -1.444 c -0.594,0.117 -0.698,-0.356 -0.863,-0.752 z"
         id="path17" />
      <path
         d="m 29.36,86.362 c -0.017,-0.066 -0.035,-0.13 -0.054,-0.196 0.052,-0.849 0.671,-1.734 -0.124,-2.583 -0.458,0.703 -0.138,1.553 -0.767,2.195 -0.039,-0.885 -0.082,-1.772 -0.122,-2.659 -0.181,0.596 -0.146,1.19 -0.191,1.779 -0.045,0.639 -0.132,1.294 -0.908,1.511 0,0 -0.031,-0.07 -0.031,-0.069 -0.018,-1.203 -0.205,-1.411 -0.752,-0.901 -0.87,0.813 -0.967,0.182 -1.087,-0.712 -0.414,0.75 -0.368,1.492 -0.99,1.862 -0.127,-0.396 -0.115,-0.833 -0.459,-1.144 -0.178,0.317 0,0.697 -0.303,0.923 -0.033,-0.819 -0.357,-0.901 -0.926,-0.365 -1.346,-0.502 -0.765,-1.914 -1.366,-3.089 -0.469,1.766 -1.544,2.65 -2.999,2.968 -0.082,-0.413 -0.202,-1.034 -0.324,-1.658 -1.228,0.404 -0.202,1.554 -0.732,2.118 -0.735,-0.313 -1.232,-1.008 -2.067,-1.127 -0.193,0.438 -0.359,0.884 -0.3,1.382 -0.032,0.569 -0.796,0.765 -0.862,0.704 -0.558,-0.5 -1.279,-0.964 -0.99,-1.951 -0.356,0.405 -0.249,0.857 -0.326,1.27 -0.123,-0.203 -0.262,-0.587 -0.369,-0.58 -0.589,0.05 -0.699,-1.522 -1.639,-0.478 -0.081,0.091 -1.34,0.825 -1.77,-0.282 C 8.843,85.127 8.74,84.95 8.564,85.012 7.515,85.377 7.331,84.042 6.462,84.051 6.444,84.509 6.278,84.992 5.844,85.468 5.622,84.504 5.346,84.842 4.792,85.253 4.243,85.659 4.453,86.301 4.038,86.674 L 4.007,86.636 C 4.055,85.587 3.862,84.621 3.108,83.815 2.73,84.068 2.854,84.403 2.841,84.702 2.778,85.089 2.808,85.526 2.626,85.844 2.455,86.14 2.231,86.633 1.695,85.914 1.401,85.521 1.325,85.114 1.095,84.757 0.862,84.392 0.677,84.926 0.433,84.948 l 0.001,-8.905 c 0.523,10e-4 1.045,0.025 1.565,10e-4 1.259,-0.059 2.332,-0.17 2.731,1.606 0.276,1.229 1.668,1.511 2.91,1.275 1.875,-0.357 3.469,0.608 5.168,1.047 1.265,0.326 2.5,1.086 3.445,-0.53 0.157,-0.268 0.62,-0.35 0.717,-0.098 0.358,0.922 1.227,0.735 1.886,0.982 1.606,0.606 1.609,0.598 1.98,-1.054 0.399,0.326 0.531,0.741 0.516,1.152 -0.025,0.678 0.653,0.376 0.698,0.361 1.201,-0.407 1.197,-0.416 1.245,-2.032 0.004,-0.157 0.032,-0.313 0.045,-0.453 0.836,1.339 0.857,2.788 0.44,4.262 0.607,0.122 0.444,-0.536 0.555,-0.483 2.148,1.042 1.445,-1.505 2.537,-1.84 0.026,0.064 0.105,0.222 0.158,0.387 0.074,0.226 0.13,0.459 0.193,0.689 0.106,-0.138 0.209,-0.276 0.395,-0.522 v 1.639 c 0.423,-1.366 0.124,-2.866 0.987,-4.212 0,0.893 -0.004,1.726 0.002,2.557 0.001,0.208 0.063,0.424 0.287,0.474 0.235,0.05 0.365,-0.111 0.406,-0.334 0.125,-0.665 1.05,-0.242 1.181,-0.952 0.144,0.506 -0.525,0.974 0.069,1.387 0.004,0.406 -0.346,0.877 0.21,1.187 0.029,0.906 0.71,1.59 0.836,2.464 0.064,0.448 0.346,1.162 -0.194,1.204 -0.456,0.038 -1.475,0.249 -1.423,-0.908 -0.406,0.31 -0.223,0.848 -0.619,1.063 M 10.993,84.394 c -0.028,-0.065 -0.056,-0.132 -0.086,-0.2 -0.036,0.058 -0.081,0.115 -0.105,0.179 -0.009,0.024 0.027,0.067 0.042,0.104 0.05,-0.027 0.099,-0.054 0.149,-0.083"
         id="path19" />
      <path
         d="m 40.821,87.985 c -0.017,0.1 -0.033,0.201 -0.047,0.301 10e-4,0 -0.082,0.006 -0.082,0.006 -0.02,-0.079 -0.04,-0.158 -0.06,-0.236 -0.091,-0.411 -0.179,-0.82 -0.333,-1.536 -0.642,1.747 -0.752,0.455 -1.032,-0.024 -0.141,0.703 -0.749,1.088 -0.607,1.75 l -0.028,0.042 -0.114,0.007 c -0.071,-0.11 -0.141,-0.221 -0.211,-0.331 -0.113,-0.797 -0.271,-1.583 -0.681,-2.364 -0.273,0.575 -0.502,1.056 -0.829,1.744 -0.114,-1.211 -0.473,-0.557 -0.867,-0.222 -0.046,-0.597 -0.09,-1.138 -0.132,-1.679 -0.181,0.433 -0.748,0.538 -0.866,0.813 -0.365,0.851 -0.641,0.882 -1.029,0.07 -0.21,-0.44 -0.351,-0.195 -0.437,0.037 -0.124,0.335 -0.167,0.338 -0.431,0.067 -0.938,-0.964 -1.397,-2.11 -1.466,-3.434 1.074,-0.034 1.078,-1.104 1.589,-1.677 0.165,-0.183 0.121,-0.551 0.584,-0.564 0.186,0.64 -0.32,1.66 0.62,1.903 0.778,0.2 0.613,-0.741 0.917,-1.21 0.302,0.193 0,1.36 0.85,0.566 0.157,-0.146 0.494,-0.2 0.518,-0.02 0.164,1.148 1.709,1.168 1.84,2.371 0.082,0.753 0.695,-0.095 0.99,0.198 0.219,-0.595 0.998,-0.404 1.236,-0.758 0.721,-1.081 0.537,0.339 0.868,0.262 0.479,-0.092 0.326,-0.686 0.77,-0.935 0.294,0.502 0.221,1.645 1.309,1.032 0.565,-0.318 1.113,0.458 1.714,-0.121 0.414,-0.398 0.555,-0.219 0.496,1.066 0.975,-0.317 0.723,-1.123 0.756,-1.774 0.037,-0.712 0.009,-1.427 0.274,-2.144 0,0.739 -0.016,1.479 0.009,2.219 0.01,0.277 -0.122,0.616 0.394,0.713 1.361,0.257 1.355,0.288 1.652,1.633 0.436,-0.96 1.294,-1.484 1.672,-2.49 0.549,0.546 0.283,1.09 0.362,1.564 0.041,0.255 -0.104,0.655 0.281,0.683 0.351,0.027 0.386,-0.335 0.416,-0.619 0.032,-0.314 0.031,-0.641 0.365,-0.902 0.369,0.446 -0.067,1.087 0.398,1.575 0.322,-0.365 0.144,-0.787 0.237,-1.139 0.099,-0.364 0.05,-0.965 0.49,-0.965 0.323,0 0.821,0.413 0.931,0.746 0.204,0.607 0.777,1.1 0.551,1.883 -0.143,0.496 0.315,0.926 0.76,0.874 0.641,-0.077 0.375,-0.69 0.3,-1.05 -0.134,-0.637 -0.715,-1.22 -0.071,-1.969 0.428,0.462 0.851,0.921 1.491,1.614 -0.834,-1.746 0.943,-2.457 1.011,-3.779 0.01,-0.175 0.179,-0.376 0.437,-0.278 0.213,0.081 0.368,0.338 0.258,0.469 -0.695,0.817 0.152,1.649 -0.05,2.467 0.141,-0.394 0.281,-0.786 0.436,-1.216 0.332,0.317 0.092,0.682 0.294,1.018 0.07,-0.25 0.126,-0.455 0.216,-0.78 0.278,0.35 0.017,0.853 0.489,1.095 0.248,-0.403 0.391,-0.824 0.386,-1.302 -0.001,-0.2 -0.036,-0.425 0.042,-0.596 0.233,-0.512 0.641,-1.12 1.122,-1.093 0.496,0.027 0.184,0.739 0.267,1.142 0.036,0.174 0.036,0.358 0.061,0.613 0.628,-0.504 0.592,-1.193 0.829,-1.872 0.878,0.687 0.688,1.849 1.354,2.696 0.518,-1.103 0.055,-2.419 1.103,-3.202 0.571,0.32 0.861,0.816 0.55,1.594 -0.097,0.24 -0.021,0.558 0.006,0.833 0.03,0.306 0.181,0.55 0.515,0.563 0.317,0.011 0.353,-0.258 0.41,-0.495 0.1,-0.424 0.212,-0.845 0.408,-1.272 -0.325,0.901 0.86,1.659 0.151,2.624 -0.118,0.162 0.133,0.384 0.352,0.201 0.56,-0.466 0.427,0.38 0.747,0.384 0.093,-1.029 -0.158,-2.089 0.436,-3.179 0.152,0.813 0.28,1.503 0.39,2.096 0.868,-0.102 0.916,-0.876 1.046,-1.631 0.501,0.422 0.154,0.935 0.43,1.351 0.27,-0.486 0.255,-1.102 0.727,-1.443 0.393,0.53 0.032,1.418 0.863,1.715 -0.083,0.51 -0.18,1.017 -0.246,1.529 -0.037,0.305 -0.103,0.552 -0.471,0.565 -0.282,0.01 -0.591,0.027 -0.699,-0.311 -0.15,-0.466 -0.519,-0.674 -0.92,-0.874 -0.378,0.708 0.62,1.643 -0.428,2.312 -0.046,-0.265 -0.074,-0.455 -0.115,-0.642 -0.067,-0.297 -0.064,-0.728 -0.449,-0.724 -0.348,0.001 -0.474,0.375 -0.511,0.712 -0.044,0.398 -0.158,0.749 -0.559,0.957 -0.414,-0.538 -0.019,-1.156 -0.368,-1.706 -0.098,1.348 -0.688,0.824 -1.249,0.393 -0.203,0.905 0.167,1.851 -0.237,2.728 -0.248,-0.534 -0.497,-1.068 -0.747,-1.603 0.241,-1.032 -0.826,-1.41 -1.097,-2.552 -0.11,0.744 -0.111,1.149 -0.24,1.509 -0.198,0.557 -0.072,1.459 -0.887,1.495 -0.834,0.036 -0.78,-0.833 -0.968,-1.404 -0.014,-0.043 -0.123,-0.057 -0.208,-0.092 -0.436,0.294 -0.084,0.874 -0.464,1.362 -0.104,-0.813 -0.419,-1.377 -1.019,-1.919 0.019,1.039 -1.062,1.348 -1.36,2.221 v -3.036 c -0.344,0.309 -0.045,0.87 -0.505,0.836 -0.399,-0.028 -0.108,-0.563 -0.401,-0.768 -0.04,0.396 -0.08,0.77 -0.148,1.402 -0.227,-0.701 -0.374,-1.15 -0.574,-1.768 -0.126,1.202 -0.985,2.005 -0.85,3.104 l -0.003,-0.004 c -0.096,-0.166 -0.156,-0.424 -0.294,-0.476 -0.251,-0.099 -0.305,0.169 -0.35,0.356 -0.093,0.381 -0.171,0.764 -0.255,1.146 -0.075,0.014 -0.145,-10e-4 -0.208,-0.042 -0.144,-0.438 -0.439,-0.827 -0.858,-0.897 -0.599,-0.098 -1.247,0.091 -1.227,-0.905 0.004,-0.262 -0.357,-0.155 -0.421,0.161 -0.026,0.131 -0.054,0.259 -0.081,0.39 -0.399,-0.54 -0.904,-0.227 -1.376,-0.173 -0.82,0.095 -0.467,-0.771 -0.92,-1.16 v 2.396 c -1.313,-0.212 -1.018,-1.484 -1.305,-1.858 -0.996,0.047 -1.351,1.001 -2.341,0.897 -0.61,-0.064 -1.185,-0.14 -1.572,-0.92 -0.049,0.926 -0.45,0.859 -0.98,0.534 -0.189,-0.115 -0.542,-0.253 -0.649,-0.169 -1.083,0.865 -1.951,0.543 -2.682,-0.51 -0.339,0.415 -0.412,0.796 -0.361,1.209 m -4.246,-4.819 c 0.027,-0.062 0.061,-0.123 0.075,-0.188 0.003,-0.013 -0.071,-0.068 -0.083,-0.06 -0.056,0.033 -0.103,0.082 -0.152,0.126 0.052,0.042 0.105,0.082 0.16,0.122 M 69.91,86.57 c -0.028,0.006 -0.065,0.003 -0.078,0.021 -0.019,0.024 -0.016,0.063 -0.021,0.097 0.044,-0.01 0.088,-0.019 0.132,-0.027 -0.01,-0.031 -0.022,-0.059 -0.033,-0.091"
         id="path21" />
      <path
         d="m 100.364,89.12 c -0.982,0.406 -2.443,0.273 -3.184,-0.324 -0.201,-0.162 -0.366,-0.2 -0.484,0.015 -0.428,0.767 -0.747,0.774 -1.242,0 -0.346,-0.541 -0.876,-0.418 -1.27,0.136 -0.167,-0.863 -0.267,-1.729 -0.51,-2.553 -0.253,-0.85 0.312,-1.612 0.189,-2.442 -0.651,0.659 -0.531,1.529 -0.764,2.291 -0.079,0.256 -0.024,0.625 -0.441,0.553 -0.307,-0.051 -0.283,-0.365 -0.271,-0.589 0.038,-0.736 -0.258,-1.409 -0.352,-2.124 -0.213,0.29 0.081,1.015 -0.557,0.854 -0.655,-0.167 -0.18,-0.909 -0.434,-1.356 -0.521,0.544 -0.139,1.251 -0.403,1.921 -0.51,-0.615 -0.995,-1.198 -1.533,-1.846 -0.07,0.464 -0.123,0.811 -0.178,1.169 -0.6,-0.034 -0.466,-0.612 -0.753,-0.877 -0.453,0.3 -0.758,0.507 -0.312,1.18 0.526,0.797 -0.07,3.256 -0.802,3.887 -0.301,0.26 -0.589,0.235 -0.917,-0.124 -0.622,-0.684 -0.543,-1.456 -0.477,-2.254 0.288,0.006 0.586,0.006 0.721,-0.306 0.347,-0.816 1.165,-1.45 0.927,-2.505 -0.055,-0.242 0.112,-0.536 0.177,-0.805 0.088,-0.376 0.051,-0.983 0.473,-0.987 0.664,-0.005 0.389,0.708 0.498,1.139 0.519,-0.268 0.128,-0.787 0.492,-1.155 0.207,0.694 1.254,0.392 1.352,1.286 0.655,-0.27 0.718,-0.882 0.88,-1.432 0.232,-0.19 0.219,-0.47 0.267,-0.726 0.291,0.292 0.191,0.678 0.223,1.027 0.059,0.675 0.656,1.216 1.047,1.227 0.626,0.021 0.277,-0.748 0.381,-1.171 0.029,-0.11 -0.01,-0.238 -0.018,-0.358 0.058,-0.584 0.036,-1.184 0.374,-1.792 0.243,0.456 0.361,0.889 0.33,1.349 -0.032,0.494 0.255,0.488 0.596,0.433 0,0.151 0.002,0.301 0.003,0.452 -0.002,0.164 -0.003,0.326 -0.004,0.488 -0.001,1.315 -0.001,2.632 -0.001,3.976 0.251,-0.222 0.478,-0.522 0.874,-0.354 0.095,0.11 -0.089,0.338 0.162,0.378 -0.049,-0.127 -0.1,-0.257 -0.15,-0.387 0.235,-1.116 0.469,-2.232 0.705,-3.348 l 0.051,-0.035 c 0.259,0.053 0.5,0.181 0.415,0.471 -0.261,0.903 0.124,1.728 0.265,2.581 0.12,0.726 0.061,1.537 1.176,1.581 0.222,0.007 0.426,0.503 0.623,0.755 0.241,-0.036 0.286,-0.177 0.319,-0.341 0.069,-0.328 -0.109,-0.882 0.362,-0.898 0.651,-0.026 0.217,0.521 0.27,0.811 0.06,0.333 0.236,0.577 0.527,0.788 0.056,-0.322 0.11,-0.619 0.186,-1.045 0.274,0.532 0.186,0.964 0.192,1.386 m -4.336,-0.271 c 0.197,-0.607 0.261,-1.194 -0.075,-1.756 0.02,0.594 -0.294,1.183 0.075,1.756"
         id="path23" />
      <path
         d="m 79.132,84.002 c 0.056,0.599 0.235,1.289 -0.78,1.164 -0.337,-0.043 -0.396,0.152 -0.422,0.418 -0.093,0.948 -0.195,1.895 -0.292,2.847 -0.34,0.086 0.19,-0.736 -0.492,-0.455 -0.263,0.109 0.006,-0.597 -0.378,-0.867 -0.036,0.522 -0.067,0.979 -0.098,1.435 -0.217,-0.968 -0.87,-1.848 -0.566,-2.911 0.803,0.076 0.519,-0.615 0.694,-0.982 0.216,-0.453 0.433,-0.907 0.65,-1.361 0.019,0.304 0.037,0.611 0.065,1.017 0.25,-0.436 0.198,-0.741 -0.052,-1.028 -0.003,-0.428 -0.041,-0.867 0.39,-1.263 0.24,0.849 -0.311,2.157 1.281,1.986"
         id="path25" />
      <path
         d="m 72.803,84.285 c -0.125,-0.015 -0.25,-0.028 -0.374,-0.043 -0.012,-0.037 -0.023,-0.075 -0.032,-0.113 -0.179,-0.688 -0.545,-1.779 0.116,-1.931 0.846,-0.193 1.064,0.947 1.27,1.68 0.116,0.409 0.052,0.868 0.071,1.303 0,0.001 -0.029,0.032 -0.029,0.032 -0.237,-0.347 -0.474,-0.693 -0.709,-1.041 -0.257,-0.383 -0.202,0.091 -0.313,0.113"
         id="path27" />
      <path
         d="m 74.481,88.431 c -0.625,-0.79 0.706,-0.729 0.566,-1.307 0.194,-0.154 0.283,-0.547 0.66,-0.301 0.057,0.4 -0.057,0.779 -0.113,1.17 -0.124,0.861 -0.515,0.869 -1.113,0.438"
         id="path29" />
      <path
         d="m 74.528,86.207 c -0.435,0 -0.607,-0.43 -0.946,-0.586 0.081,-0.135 0.162,-0.274 0.244,-0.409 0,0 0.029,-0.031 0.029,-0.032 0.442,-0.225 0.429,-1.305 1.025,-0.892 0.41,0.283 0.399,1.204 -0.264,1.698 -0.056,0.04 -0.06,0.145 -0.088,0.221"
         id="path31" />
      <path
         d="m 79.75,88.294 c -0.515,-0.846 -0.105,-1.624 -0.08,-2.396 0.005,-0.2 0.156,-0.382 0.383,-0.371 0.256,0.014 0.277,0.248 0.283,0.44 0.026,0.822 0.173,1.675 -0.586,2.327"
         id="path33" />
      <path
         d="m 73.28,85.905 c -0.02,0.74 0.855,1.419 0.164,2.21 -0.413,-0.112 -0.172,-0.583 -0.451,-0.778 -0.085,0.21 -0.169,0.416 -0.352,0.861 -0.139,-0.816 -0.284,-1.378 -0.188,-1.914 0.265,-0.282 0.102,1.022 0.494,0.048 0.112,-0.143 0.224,-0.285 0.333,-0.427"
         id="path35" />
    </g>
    <g
       id="mountains-1"
       clip-path="url(#ga_clippath)"
       fill-rule="evenodd"
       clip-rule="evenodd"
       fill="#b0c494"
       stroke="#b0c494"
       stroke-width="0.25"
       stroke-miterlimit="10">
      <path
         d="m 6.458,41.383 c -0.098,0.716 -0.665,1.107 -1.16,1.47 -1.281,0.941 -2.178,2.096 -2.676,3.633 -0.242,0.749 0.036,0.906 0.597,0.888 0.99,-0.028 1.886,0.227 2.789,0.604 0.634,0.266 1.279,0.217 1.926,-0.222 1.484,-1.001 3.958,0.216 4.045,1.968 0.031,0.604 0.223,1.096 0.807,1.162 1.006,0.111 1.981,0.479 3.056,0.121 1.548,-0.514 3.179,-0.223 4.771,-0.167 0.744,0.025 1.02,0.757 0.956,1.327 -0.229,2.069 1.229,2.597 2.703,3.029 1.031,0.306 2.128,0.309 3.178,-0.107 1.508,-0.597 2.996,0.221 4.504,0.1 0.281,-0.022 0.503,0.315 0.465,0.613 -0.16,1.205 0.73,1.992 1.141,2.968 0.287,0.683 0.759,0.792 1.341,0.401 0.852,-0.572 1.729,-0.468 2.653,-0.228 0.407,0.105 0.658,0.094 0.43,0.664 -0.324,0.803 0.35,0.824 0.771,0.618 0.896,-0.437 1.66,-0.214 2.531,0.086 1.287,0.445 2.693,-0.062 4.017,0.328 0.294,0.087 0.645,-0.009 0.871,0.294 -0.055,0.893 -0.719,1.614 -0.719,2.522 0,0.477 -0.078,1.095 0.648,1.019 1.27,-0.133 2.375,0.746 3.65,0.519 0.262,-0.047 0.604,-0.034 0.67,0.336 0.058,0.316 -0.161,0.545 -0.41,0.674 -0.241,0.128 -0.536,0.146 -0.793,0.252 -0.319,0.133 -0.759,0.201 -0.771,0.646 -0.012,0.417 0.352,0.644 0.686,0.747 0.869,0.271 1.507,1.054 2.499,1.07 0.262,0.003 0.684,0.167 0.633,0.585 -0.037,0.313 -0.373,0.238 -0.594,0.259 -1.203,0.104 -1.362,1.384 -2.178,1.926 -0.134,0.09 -0.112,0.354 0.058,0.397 0.617,0.164 0.879,0.866 1.482,0.988 1.638,0.331 3.24,0.871 4.951,0.776 2.362,-0.129 4.716,0.12 7.071,0.239 0.286,0.016 0.598,0.021 0.777,0.252 0.606,0.785 1.472,0.603 2.291,0.744 1.396,0.238 3.085,-0.14 3.934,1.552 0.126,0.256 0.442,0.326 0.738,0.336 2.109,0.074 3.977,1.616 6.2,1.031 0.099,-0.026 0.228,0.09 0.344,0.091 2.225,0.027 4.447,0.292 6.676,0.125 0.59,-0.044 1.224,-0.118 1.129,0.755 -0.112,1.066 0.488,1.083 1.305,1.166 1.091,0.113 2.58,-0.614 3.054,1.19 0.034,0.122 0.417,0.182 0.645,0.215 0.413,0.061 0.782,0.17 1.041,0.522 -0.162,0.549 -0.225,1.162 -0.88,1.432 -0.098,-0.894 -1.146,-0.591 -1.353,-1.286 -0.363,0.368 0.028,0.888 -0.49,1.155 -0.111,-0.43 0.166,-1.144 -0.499,-1.139 -0.422,0.004 -0.384,0.611 -0.473,0.987 -0.065,0.269 -0.232,0.563 -0.178,0.805 0.239,1.054 -0.579,1.688 -0.926,2.505 -0.135,0.313 -0.434,0.312 -0.721,0.307 -0.024,-0.051 -0.045,-0.101 -0.063,-0.153 0.228,-1.318 -1.017,-2.11 -1,-3.388 -0.74,0.361 -0.854,1.017 -1.284,1.411 -0.471,-0.501 -0.232,-1.257 -0.772,-1.804 -0.134,0.521 -0.24,0.978 -0.378,1.427 -0.04,0.126 -0.17,0.224 -0.257,0.335 -0.599,-1.12 -0.462,0.326 -0.711,0.241 -0.289,-0.236 0.098,-0.766 -0.521,-0.86 0.036,0.464 0.071,0.883 0.105,1.3 h -0.404 c -0.086,-0.9 -0.315,-1.739 -0.926,-2.456 -0.471,0.354 -0.296,0.766 -0.283,1.146 -0.012,0.056 -0.026,0.111 -0.044,0.167 -1.592,0.17 -1.041,-1.137 -1.281,-1.986 -0.43,0.395 -0.393,0.835 -0.39,1.263 l -0.015,0.011 c -0.216,0.454 -0.433,0.908 -0.649,1.361 -0.175,0.366 0.109,1.059 -0.694,0.982 -0.083,-0.431 0.053,-0.917 -0.396,-1.453 v 2.642 c -0.376,-0.246 -0.465,0.146 -0.66,0.301 -0.336,-0.213 -0.457,-0.548 -0.52,-0.917 0.028,-0.074 0.032,-0.181 0.087,-0.22 0.663,-0.494 0.674,-1.415 0.264,-1.698 -0.596,-0.414 -0.583,0.667 -1.025,0.892 -0.017,-0.435 0.045,-0.895 -0.07,-1.303 -0.208,-0.732 -0.425,-1.874 -1.271,-1.679 -0.662,0.151 -0.295,1.241 -0.116,1.93 0.009,0.038 0.021,0.077 0.032,0.113 l -0.009,0.04 c -0.831,-0.298 -0.47,-1.186 -0.863,-1.716 -0.472,0.342 -0.456,0.958 -0.728,1.443 -0.275,-0.417 0.071,-0.929 -0.428,-1.351 -0.132,0.755 -0.179,1.529 -1.049,1.631 -0.109,-0.593 -0.237,-1.283 -0.389,-2.096 -0.594,1.09 -0.342,2.15 -0.436,3.179 -0.32,-0.004 -0.187,-0.85 -0.747,-0.383 -0.219,0.183 -0.47,-0.04 -0.352,-0.202 0.709,-0.965 -0.477,-1.722 -0.151,-2.624 -0.196,0.428 -0.308,0.849 -0.408,1.272 -0.058,0.237 -0.093,0.506 -0.41,0.495 -0.334,-0.012 -0.484,-0.256 -0.515,-0.563 -0.026,-0.277 -0.103,-0.593 -0.006,-0.833 0.311,-0.778 0.021,-1.273 -0.552,-1.594 -1.046,0.783 -0.583,2.099 -1.101,3.202 -0.666,-0.847 -0.477,-2.009 -1.354,-2.696 -0.236,0.679 -0.201,1.368 -0.829,1.872 -0.024,-0.255 -0.024,-0.439 -0.061,-0.613 -0.083,-0.402 0.229,-1.115 -0.266,-1.142 -0.482,-0.026 -0.89,0.58 -1.123,1.093 -0.077,0.17 -0.044,0.396 -0.042,0.596 0.004,0.479 -0.138,0.899 -0.387,1.302 -0.472,-0.241 -0.211,-0.745 -0.489,-1.095 -0.09,0.325 -0.146,0.53 -0.216,0.78 -0.202,-0.336 0.038,-0.701 -0.294,-1.018 -0.154,0.431 -0.294,0.822 -0.437,1.216 0.203,-0.817 -0.645,-1.65 0.051,-2.467 0.11,-0.13 -0.045,-0.388 -0.258,-0.469 -0.258,-0.099 -0.426,0.104 -0.437,0.278 -0.067,1.322 -1.845,2.034 -1.011,3.779 -0.641,-0.693 -1.063,-1.152 -1.491,-1.614 -0.645,0.75 -0.063,1.334 0.071,1.969 0.076,0.36 0.341,0.974 -0.3,1.05 -0.446,0.052 -0.902,-0.378 -0.76,-0.874 0.225,-0.783 -0.347,-1.275 -0.551,-1.883 -0.11,-0.332 -0.607,-0.743 -0.932,-0.745 -0.439,0 -0.391,0.602 -0.489,0.965 -0.093,0.352 0.086,0.774 -0.235,1.139 -0.466,-0.487 -0.03,-1.129 -0.399,-1.576 -0.333,0.263 -0.333,0.589 -0.365,0.904 -0.03,0.284 -0.065,0.646 -0.416,0.619 -0.386,-0.028 -0.239,-0.428 -0.283,-0.683 -0.077,-0.474 0.188,-1.018 -0.359,-1.564 -0.38,1.006 -1.238,1.53 -1.675,2.491 -0.296,-1.346 -0.29,-1.377 -1.651,-1.634 -0.517,-0.097 -0.384,-0.436 -0.394,-0.713 -0.023,-0.74 -0.009,-1.479 -0.009,-2.219 -0.265,0.717 -0.237,1.432 -0.274,2.144 -0.033,0.651 0.219,1.457 -0.756,1.774 0.059,-1.285 -0.083,-1.465 -0.496,-1.066 -0.601,0.58 -1.149,-0.197 -1.714,0.121 -1.088,0.613 -1.015,-0.53 -1.309,-1.034 -0.443,0.25 -0.289,0.844 -0.77,0.937 -0.331,0.078 -0.147,-1.342 -0.868,-0.262 -0.238,0.354 -1.017,0.163 -1.236,0.758 -0.295,-0.293 -0.909,0.555 -0.99,-0.198 -0.131,-1.203 -1.676,-1.223 -1.839,-2.371 -0.025,-0.18 -0.362,-0.126 -0.519,0.021 -0.847,0.794 -0.548,-0.373 -0.851,-0.566 -0.303,0.47 -0.137,1.411 -0.915,1.21 -0.94,-0.242 -0.436,-1.264 -0.621,-1.903 -0.463,0.013 -0.42,0.381 -0.585,0.565 -0.511,0.572 -0.513,1.642 -1.587,1.676 -0.113,-0.236 0.015,-0.571 -0.297,-0.726 0.17,-0.633 0.175,-1.133 -0.725,-0.913 -0.594,-0.413 0.075,-0.881 -0.069,-1.388 -0.131,0.71 -1.056,0.287 -1.182,0.952 -0.04,0.221 -0.17,0.385 -0.405,0.333 -0.225,-0.048 -0.286,-0.264 -0.287,-0.473 -0.006,-0.83 -0.002,-1.664 -0.002,-2.557 -0.863,1.346 -0.563,2.845 -0.987,4.212 v -1.64 c -0.186,0.246 -0.289,0.384 -0.395,0.521 -0.063,-0.23 -0.12,-0.462 -0.193,-0.688 -0.053,-0.166 -0.132,-0.323 -0.158,-0.387 -1.092,0.335 -0.389,2.881 -2.537,1.84 -0.111,-0.052 0.052,0.606 -0.555,0.483 0.417,-1.473 0.396,-2.922 -0.44,-4.262 -0.013,0.139 -0.041,0.296 -0.045,0.451 -0.048,1.617 -0.044,1.627 -1.245,2.033 -0.045,0.014 -0.723,0.316 -0.698,-0.362 0.015,-0.41 -0.117,-0.825 -0.516,-1.152 -0.371,1.652 -0.374,1.661 -1.98,1.055 -0.66,-0.247 -1.528,-0.061 -1.886,-0.982 -0.097,-0.252 -0.56,-0.17 -0.717,0.098 -0.944,1.617 -2.18,0.856 -3.445,0.53 C 11.101,79.532 9.507,78.566 7.632,78.923 6.39,79.158 4.997,78.877 4.722,77.648 4.323,75.872 3.25,75.983 1.991,76.041 c -0.521,0.024 -1.042,0.001 -1.565,0 L 0.432,41.378 Z m 18.949,40.389 c 0.107,-0.116 0.216,-0.181 0.225,-0.256 0.009,-0.087 -0.075,-0.18 -0.12,-0.27 -0.076,0.06 -0.196,0.108 -0.215,0.182 -0.021,0.08 0.054,0.185 0.11,0.344 m 9.653,-0.993 c -0.025,-0.061 -0.05,-0.12 -0.075,-0.18 -0.028,0.021 -0.076,0.041 -0.077,0.063 -0.005,0.064 0.01,0.13 0.019,0.195 0.043,-0.024 0.087,-0.049 0.133,-0.078"
         id="path38" />
      <path
         d="m 91.189,81.871 c -0.259,-0.353 -0.628,-0.462 -1.041,-0.523 -0.228,-0.033 -0.611,-0.093 -0.645,-0.215 -0.475,-1.804 -1.963,-1.077 -3.054,-1.19 -0.817,-0.083 -1.417,-0.1 -1.305,-1.166 0.095,-0.874 -0.539,-0.799 -1.129,-0.755 -2.229,0.166 -4.452,-0.098 -6.676,-0.125 -0.116,-0.001 -0.245,-0.118 -0.344,-0.091 -2.223,0.585 -4.091,-0.957 -6.2,-1.031 -0.295,-0.011 -0.611,-0.081 -0.738,-0.336 -0.849,-1.692 -2.538,-1.314 -3.934,-1.552 -0.819,-0.141 -1.684,0.042 -2.291,-0.744 -0.179,-0.232 -0.491,-0.236 -0.777,-0.252 -2.355,-0.119 -4.709,-0.368 -7.071,-0.239 -1.711,0.095 -3.313,-0.446 -4.951,-0.776 -0.603,-0.122 -0.865,-0.824 -1.481,-0.988 -0.17,-0.043 -0.192,-0.308 -0.058,-0.397 0.816,-0.542 0.975,-1.823 2.178,-1.926 0.221,-0.021 0.557,0.055 0.594,-0.259 0.051,-0.418 -0.371,-0.582 -0.633,-0.585 -0.992,-0.016 -1.629,-0.799 -2.499,-1.07 -0.334,-0.103 -0.698,-0.329 -0.686,-0.747 0.013,-0.445 0.452,-0.514 0.771,-0.646 0.257,-0.106 0.552,-0.125 0.793,-0.252 0.249,-0.129 0.467,-0.358 0.41,-0.674 -0.065,-0.37 -0.408,-0.383 -0.67,-0.336 -1.275,0.227 -2.381,-0.652 -3.65,-0.519 -0.727,0.076 -0.648,-0.542 -0.648,-1.019 0,-0.908 0.666,-1.629 0.719,-2.522 1.866,-0.065 3.771,-0.36 5.36,1.057 0.36,0.322 0.875,0.383 1.371,0.344 2.086,-0.174 4.188,0.028 6.216,0.325 1.898,0.278 3.807,-0.048 5.667,0.413 1.051,0.261 1.965,-0.598 3.089,-0.293 1.215,0.332 2.534,0.21 3.763,0.613 0.701,0.23 1.419,0.323 2.028,-0.261 0.396,-0.38 0.888,-0.301 1.364,-0.311 0.99,-0.014 2.004,0.151 2.873,-0.558 0.254,-0.206 0.628,-0.228 0.919,-0.056 1.481,0.888 3.333,0.671 4.802,1.683 0.606,0.414 1.525,0.25 2.241,0.096 1.082,-0.234 2.238,0.039 3.269,-0.561 0.484,-0.281 0.904,0.155 1.29,0.427 0.983,0.694 1.977,1.078 3.052,0.183 0.161,-0.136 0.368,-0.246 0.545,-0.098 1.388,1.163 2.993,0.312 4.489,0.462 0.457,0.044 0.919,0.022 1.189,0.362 1.021,1.285 2.545,1.188 3.919,1.521 0.25,0.063 0.532,0.109 0.643,-0.143 0.535,-1.223 1.029,-0.402 1.461,0.044 0.774,0.793 1.323,1.798 2.423,2.276 0.526,0.228 0.386,0.836 0.351,1.304 -0.035,0.475 -0.157,0.943 -0.216,1.417 -0.1,0.787 0.007,1.347 1.049,1.052 0.498,-0.144 0.895,0.159 1.275,0.504 2.165,1.953 4.294,3.951 6.545,5.797 1.719,1.409 3.834,2.207 5.804,3.204 0.678,0.341 1.654,0.097 2.493,0.12 1.469,0.04 2.947,0 4.405,0.051 1.786,0.062 3.645,-0.131 4.863,-1.154 1.203,-1.011 3.004,-0.521 3.881,-2.066 0.382,-0.672 0.656,-1.541 1.458,-1.954 2.035,-1.043 3.019,-3.185 4.751,-4.542 0.313,-0.246 0.46,-0.535 0.519,-0.9 0.031,-0.199 -0.008,-0.457 0.102,-0.582 1.294,-1.471 2.233,-3.317 4.246,-4.027 l -0.003,16.608 c -1.257,0.494 -2.892,0.551 -2.897,2.5 0,0.147 -0.119,0.215 -0.243,0.128 -0.767,-0.543 -1.617,1.106 -2.419,-0.096 -0.084,-0.127 -1.011,0.033 -1.148,0.422 -0.245,0.704 -0.637,0.542 -1.124,0.447 -0.857,-0.166 -1.645,-0.496 -2.555,0.2 -0.772,0.591 -1.167,-0.147 -1.26,-1.151 -0.52,1.194 -1,0.459 -1.529,0.049 -0.045,1.121 -0.211,1.823 -1.542,1.699 -0.848,-0.081 -1.907,-0.282 -2.647,0.391 -0.672,0.607 -1.108,0.675 -1.588,-0.156 -0.208,-0.362 -0.465,-0.468 -0.769,0.025 -0.218,0.352 -0.615,0.596 -0.946,0.873 -0.247,0.206 -0.578,0.276 -0.689,-0.079 -0.534,-1.67 -0.731,0.243 -1.211,0.101 0.054,-1.063 -0.521,-0.969 -1.38,-0.912 -1.212,0.082 -2.354,0.488 -3.661,0.369 -0.963,-0.088 -1.965,-0.647 -3,-0.271 -0.593,0.215 -1.163,0.269 -1.763,-0.207 -0.492,-0.39 -1.245,-0.875 -1.492,0.336 -0.005,0.024 -0.212,0.005 -0.327,0.005 -0.036,-0.247 -0.071,-0.492 -0.104,-0.738 -0.086,-0.002 -0.169,-0.005 -0.255,-0.008 -0.065,0.057 -0.131,0.113 -0.197,0.171 -1.627,0.27 -3.237,0.297 -4.797,-0.349 -0.101,-0.041 -0.203,-0.077 -0.305,-0.115 -0.554,1.459 -0.914,-0.313 -1.466,-0.053 -0.063,0.574 -0.421,0.832 -1.05,0.736 -0.945,-0.146 -1.403,-1.285 -2.518,-1.211 -0.136,0.01 -0.348,-1.12 -0.538,-1.771 -0.448,0.072 -1.001,1.257 -1.353,-0.078 -0.068,-0.258 -0.311,-0.117 -0.48,0.006 -0.233,0.17 -0.568,0.148 -0.574,-0.12 -0.024,-1.111 -1.149,-1.918 -0.813,-3.125 0.093,-0.335 0.014,-0.72 0.014,-1.081 -0.163,1.078 -1.331,0.974 -1.754,1.596 -0.568,0.836 -1,0.619 -1.54,-0.01 -0.353,-0.415 -0.691,-0.779 -0.46,-1.374 0.084,-0.215 0.218,-0.508 -0.087,-0.609 -0.284,-0.095 -0.395,0.185 -0.457,0.425 -0.243,0.924 -0.48,1.848 -0.719,2.771 l -0.051,0.035 c -0.426,-0.479 -0.029,-1.138 -0.505,-1.95 0.151,1.139 -0.161,1.684 -1.083,1.685 0.001,-0.162 0.001,-0.325 0.004,-0.488 0.168,-0.026 0.334,-0.082 0.276,-0.287 -0.021,-0.075 -0.181,-0.11 -0.279,-0.165 -0.341,0.055 -0.628,0.061 -0.595,-0.432 0.031,-0.46 -0.088,-0.896 -0.331,-1.351 -0.338,0.607 -0.316,1.208 -0.375,1.792 -1.07,-0.078 -0.555,-1.379 -1.395,-1.709 -0.075,0.314 -0.156,0.649 -0.238,0.984 -0.046,0.257 -0.033,0.537 -0.265,0.728 m 3.245,-0.829 -0.015,0.146 c 0.02,-0.021 0.054,-0.043 0.056,-0.068 0.002,-0.025 -0.026,-0.052 -0.041,-0.078"
         id="path40" />
    </g>
    <g
       id="reeds-2"
       clip-path="url(#ga_clippath)"
       fill-rule="evenodd"
       clip-rule="evenodd"
       fill="#3b5a2a"
       stroke="#3b5a2a"
       stroke-width="0.5"
       stroke-miterlimit="10">
      <path
         d="m 79.75,88.294 c -0.515,-0.846 -0.105,-1.624 -0.08,-2.396 0.005,-0.2 0.157,-0.382 0.383,-0.371 0.256,0.014 0.277,0.248 0.283,0.439 0.026,0.823 0.173,1.676 -0.586,2.328 z m 28.924,10.819 -5.861,-0.001 c 0,-0.04 0,-0.078 0,-0.117 l 5.861,10e-4 c 0,0.039 0,0.078 0,0.117 z m 3.087,-0.096 c -0.434,-0.132 -0.917,0.088 -1.547,-0.372 1.18,0 2.092,-10e-4 3.006,0 0.614,0 0.914,-0.312 0.775,-0.908 -0.17,-0.728 -0.044,-1.462 0.151,-2.11 0.721,-2.416 0.352,-3.709 -1.673,-5.207 -0.419,-0.31 -0.832,-0.636 -0.857,-1.228 -0.132,-0.012 -0.264,-0.022 -0.396,-0.036 -0.419,0.209 -0.826,0.473 -1.33,0.274 -0.579,-0.395 -1.201,-0.35 -1.834,-0.184 -0.57,0.007 -1.136,0.016 -1.705,0.023 -0.168,-0.075 -0.336,-0.151 -0.503,-0.226 -0.236,0.013 -0.488,0.09 -0.703,0.031 -0.563,-0.152 -1.103,-0.477 -1.571,0.218 -0.082,0.121 -0.454,0.05 -0.615,-0.18 -1.022,0.45 -1.213,-0.42 -1.551,-1.119 -0.226,0.584 -0.09,1.302 -0.927,1.249 0,0.07 0.001,0.16 -0.017,10e-4 -0.025,-0.049 -0.058,-0.091 -0.098,-0.127 -0.982,0.406 -2.443,0.274 -3.185,-0.324 -0.2,-0.162 -0.364,-0.199 -0.483,0.015 -0.428,0.766 -0.747,0.773 -1.242,0 -0.346,-0.541 -0.876,-0.419 -1.27,0.137 -0.167,-0.863 -0.267,-1.729 -0.51,-2.552 -0.253,-0.852 0.312,-1.614 0.189,-2.443 -0.65,0.659 -0.531,1.53 -0.764,2.292 -0.079,0.255 -0.024,0.624 -0.441,0.552 -0.307,-0.051 -0.283,-0.366 -0.271,-0.59 0.039,-0.736 -0.258,-1.408 -0.354,-2.124 -0.211,0.29 0.083,1.015 -0.555,0.854 -0.655,-0.167 -0.18,-0.909 -0.436,-1.356 -0.52,0.544 -0.137,1.251 -0.401,1.922 -0.51,-0.617 -0.995,-1.198 -1.533,-1.847 -0.07,0.464 -0.123,0.811 -0.178,1.169 -0.6,-0.034 -0.465,-0.612 -0.753,-0.877 -0.454,0.301 -0.758,0.507 -0.312,1.18 0.526,0.797 -0.07,3.255 -0.802,3.887 -0.302,0.261 -0.589,0.235 -0.917,-0.124 -0.622,-0.684 -0.543,-1.457 -0.477,-2.253 -0.024,-0.05 -0.045,-0.102 -0.063,-0.152 -0.102,0.289 -0.203,0.582 -0.35,1 -0.209,-0.566 -0.089,-1.121 -0.446,-1.481 -0.396,0.595 -0.444,1.23 -0.161,1.947 0.113,0.29 0.119,0.838 -0.306,0.93 -0.528,0.114 -0.488,-0.497 -0.523,-0.758 -0.115,-0.867 -0.108,-1.752 -0.156,-2.794 -0.693,0.836 -0.024,1.834 -0.651,2.603 -0.526,-0.652 -0.418,-1.456 -0.57,-2.181 -0.037,-0.178 0.338,-0.5 -0.146,-0.527 -0.47,-0.025 -0.325,0.318 -0.32,0.588 0.012,0.758 0.113,1.522 -0.082,2.273 -0.041,0.154 -0.132,0.294 -0.33,0.3 -0.8,-0.944 -0.659,-2.122 -0.777,-3.239 h -0.404 c -1.18,0.278 -0.732,-0.942 -1.208,-1.311 -0.012,0.057 -0.026,0.112 -0.044,0.167 0.056,0.599 0.235,1.289 -0.78,1.164 -0.337,-0.043 -0.396,0.152 -0.422,0.418 -0.093,0.948 -0.195,1.895 -0.293,2.847 -0.339,0.086 0.191,-0.736 -0.491,-0.455 -0.263,0.109 0.006,-0.597 -0.38,-0.87 -0.035,0.524 -0.066,0.981 -0.097,1.438 -0.216,-0.968 -0.869,-1.848 -0.565,-2.911 -0.083,-0.43 0.053,-0.917 -0.396,-1.453 v 2.642 c 0.057,0.4 -0.057,0.779 -0.113,1.17 -0.125,0.862 -0.516,0.869 -1.113,0.438 -0.051,0.047 -0.1,0.093 -0.148,0.141 -0.026,0.678 0.126,1.122 0.966,0.847 0.293,-0.096 0.628,-0.064 0.945,-0.084 1.016,-0.066 2.012,-0.184 2.757,-1.007 0.436,0.607 0.854,1.009 1.765,1.089 0.925,0.081 2.192,0.264 2.573,1.395 0.267,0.795 0.693,1.437 1.196,2.036 1.072,1.276 1.815,2.667 2.194,4.316 0.489,2.131 -0.58,3.659 -2.759,3.678 -0.883,0.007 -1.766,-0.021 -2.646,0.027 -0.527,0.029 -1.099,-0.142 -1.591,0.188 6.658,-0.234 13.317,-0.51 19.978,-0.92 0.327,-0.417 1.009,-0.271 1.574,-0.227 0.879,0.071 1.742,-0.265 2.615,-0.045 0.202,-0.014 0.403,-0.027 0.604,-0.042 0.607,-0.148 1.215,-0.2 1.823,-0.146 1.48,-0.115 2.961,-0.228 4.442,-0.36 -0.02,-0.016 -0.042,-0.024 -0.06,-0.045 0.32,-0.263 0.748,0.061 1.049,-0.251 z"
         id="path43" />
      <path
         d="m 143.398,99.64 c 0.08,0.014 0.158,0.029 0.238,0.044 0.365,-10e-4 0.729,-0.003 1.092,-0.004 -0.45,-0.118 -0.899,-0.238 -1.35,-0.348 0.021,0.089 0.03,0.189 0.02,0.308 z"
         id="path45" />
      <path
         d="m 149.667,88.347 c -0.343,0.038 -0.644,-0.12 -1.038,-0.029 -1.725,0.399 -3.408,1.044 -5.257,0.791 -0.941,-0.129 -2.121,-0.042 -2.514,0.965 -0.654,1.68 -0.932,3.519 -0.24,5.246 0.402,1.006 0.287,2.532 1.948,2.699 0.25,0.025 0.32,0.232 0.063,0.405 -0.638,0.425 -0.122,0.461 0.185,0.491 0.343,0.033 0.51,0.179 0.565,0.417 0.451,0.11 0.9,0.23 1.35,0.348 1.646,-0.006 3.291,-0.014 4.937,-0.021 z"
         id="path47" />
      <path
         d="M 12.622,104.449 0.428,104.447 v 0.242 c 4.068,0.352 8.13,0.116 12.194,-0.24 z"
         id="path49" />
      <path
         d="m 149.664,102.066 c -0.958,0.328 -1.91,-0.046 -2.864,-0.031 0.84,-0.882 1.918,-0.249 2.864,-0.45 z"
         id="path51" />
      <path
         d="m 66.167,89.221 c 0.405,-0.877 0.035,-1.823 0.237,-2.728 0.562,0.431 1.151,0.955 1.249,-0.393 0.349,0.551 -0.045,1.168 0.369,1.706 0.4,-0.208 0.514,-0.559 0.557,-0.957 0.038,-0.338 0.164,-0.71 0.512,-0.714 0.384,-0.002 0.381,0.428 0.449,0.725 0.041,0.187 0.068,0.377 0.115,0.642 1.048,-0.668 0.05,-1.604 0.427,-2.312 0.403,0.199 0.771,0.407 0.921,0.874 0.108,0.338 0.417,0.321 0.699,0.311 0.368,-0.014 0.434,-0.261 0.471,-0.565 0.066,-0.512 0.162,-1.02 0.246,-1.529 0,10e-4 0.009,-0.039 0.009,-0.039 0.125,0.016 0.25,0.029 0.374,0.043 0.049,0.683 0.097,1.364 0.146,2.046 -0.393,0.976 -0.23,-0.33 -0.496,-0.048 -0.095,0.536 0.049,1.099 0.188,1.915 0.183,-0.446 0.267,-0.652 0.352,-0.862 0.279,0.195 0.038,0.666 0.451,0.778 0.691,-0.793 -0.184,-1.47 -0.165,-2.21 0.101,-0.094 0.203,-0.19 0.302,-0.284 0.339,0.156 0.511,0.586 0.946,0.586 0.063,0.369 0.184,0.704 0.52,0.917 0.14,0.578 -1.192,0.518 -0.566,1.306 -0.051,0.048 -0.099,0.094 -0.148,0.142 -0.281,0.212 -0.541,0.472 -0.851,0.625 -0.823,0.398 -1.513,0.478 -1.36,-0.77 -1.156,1.234 -0.865,-0.642 -1.413,-0.646 -0.413,1.168 -1.678,1.607 -3.158,1.097 -0.281,-0.097 -0.129,0.24 -0.2,0.242 -0.396,0.015 -0.737,0.769 -1.183,0.102"
         id="path53" />
      <path
         d="m 40.821,87.985 c -0.049,-0.415 0.022,-0.794 0.355,-1.211 0.731,1.053 1.6,1.375 2.684,0.511 0.105,-0.085 0.458,0.053 0.648,0.168 0.53,0.325 0.931,0.392 0.981,-0.534 0.387,0.781 0.961,0.857 1.571,0.921 0.99,0.103 1.344,-0.851 2.341,-0.898 0.288,0.375 -0.008,1.646 1.305,1.858 v -2.396 c 0.453,0.388 0.1,1.255 0.92,1.16 0.472,-0.054 0.977,-0.367 1.376,0.173 0.027,-0.131 0.055,-0.259 0.081,-0.39 0.064,-0.316 0.426,-0.424 0.421,-0.162 -0.02,0.997 0.628,0.808 1.227,0.906 0.42,0.07 0.714,0.46 0.858,0.897 -1.064,0.09 -2.112,0.214 -3.199,0.063 -0.496,-0.067 -1.235,-0.427 -1.689,0.331 -0.069,0.116 -0.634,0.118 -0.764,-0.02 -1.011,-1.076 -2.512,-0.586 -3.411,-0.435 -1.242,0.209 -2.314,-0.586 -3.458,-0.119 -0.979,0.4 -1.641,-0.159 -2.247,-0.823"
         id="path55" />
      <path
         d="m 56.7,88.007 c -0.135,-1.098 0.724,-1.901 0.85,-3.104 0.202,0.618 0.347,1.067 0.574,1.768 0.068,-0.632 0.108,-1.006 0.148,-1.402 0.292,0.206 0.001,0.74 0.401,0.768 0.459,0.033 0.161,-0.527 0.505,-0.836 v 3.036 c 0.298,-0.871 1.379,-1.182 1.36,-2.221 0.599,0.543 0.915,1.106 1.019,1.919 0.38,-0.488 0.029,-1.068 0.464,-1.362 0.086,0.036 0.194,0.049 0.208,0.092 0.188,0.572 0.134,1.44 0.968,1.404 0.815,-0.036 0.688,-0.938 0.887,-1.495 0.128,-0.36 0.129,-0.766 0.24,-1.511 0.271,1.144 1.338,1.522 1.097,2.554 -0.192,-0.062 -0.41,-0.139 -0.455,0.16 -0.188,1.263 -0.764,1.5 -2.099,1.418 -0.896,-0.055 -2.03,0.103 -2.952,0.072 -0.738,-0.026 -1.693,-0.132 -2.48,-0.448 -0.32,-0.125 -0.203,-0.786 -0.735,-0.812"
         id="path57" />
      <path
         d="m 13.22,111.478 c -0.009,0.526 -0.053,0.864 -0.807,0.784 -0.883,-0.092 -1.792,0.108 -2.692,0.14 -0.488,0.016 -0.609,0.27 -0.598,0.682 -1.586,0.174 -3.2,-0.128 -4.779,0.286 -0.356,0.094 -0.726,-0.006 -0.766,-0.514 -0.041,-0.505 0.174,-0.785 0.681,-0.743 0.878,0.071 1.761,0.075 2.623,0.333 0.495,0.149 1.302,0.48 0.678,-0.667 -0.21,-0.389 0.071,-0.916 0.561,-0.754 1.674,0.546 3.4,0.316 5.099,0.453"
         id="path59" />
      <path
         d="m 55.86,101.468 c -2.974,-0.154 -5.932,-0.142 -9.156,0.256 3.25,0.251 6.201,-0.298 9.156,-0.256 z"
         id="path61" />
      <path
         d="m 38.66,88.246 c -0.141,-0.662 0.467,-1.047 0.608,-1.75 0.279,0.479 0.389,1.771 1.031,0.024 0.154,0.716 0.244,1.125 0.333,1.537 -0.664,0.004 -1.291,0.353 -1.972,0.189"
         id="path63" />
      <path
         d="m 55.797,89.029 c 0.085,-0.381 0.164,-0.765 0.256,-1.146 0.045,-0.187 0.099,-0.455 0.35,-0.356 0.138,0.052 0.199,0.31 0.294,0.477 0.125,0.578 0.123,1.111 -0.556,1.35 -0.282,0.097 -0.327,-0.11 -0.344,-0.325"
         id="path65" />
      <path
         d="m 16.18,109.244 h -2.959 c 1.179,-0.706 2.125,0.077 2.959,0"
         id="path67" />
      <path
         d="m 14.713,109.701 c -0.686,0.401 -1.127,0.211 -1.572,0.115 0.409,-0.379 0.858,-0.33 1.572,-0.115"
         id="path69" />
      <path
         d="m 40.692,88.292 0.082,-0.005 c -0.017,0.165 -0.045,0.167 -0.082,0.005"
         id="path71" />
      <path
         d="m 38.518,88.295 0.114,-0.008 c -0.028,0.163 -0.065,0.177 -0.114,0.008"
         id="path73" />
      <path
         d="m 10.321,113.769 c 1.1,-0.061 2.192,-0.509 3.298,-0.308 0.003,0.103 0.006,0.206 0.007,0.309 z"
         id="path75" />
      <path
         d="m 10.993,84.395 c -0.05,0.028 -0.099,0.055 -0.15,0.082 -0.015,-0.036 -0.051,-0.079 -0.042,-0.104 0.024,-0.064 0.069,-0.121 0.105,-0.179 0.032,0.067 0.059,0.135 0.087,0.201"
         id="path77" />
      <path
         d="m 69.91,86.57 c 0.011,0.031 0.023,0.06 0.033,0.09 -0.043,0.008 -0.087,0.018 -0.132,0.027 0.005,-0.033 0.002,-0.073 0.021,-0.097 0.012,-0.017 0.05,-0.014 0.078,-0.02"
         id="path79" />
      <path
         d="m 31.569,82.996 c 0.068,1.324 0.529,2.47 1.466,3.434 0.265,0.271 0.307,0.27 0.431,-0.067 0.086,-0.232 0.227,-0.478 0.437,-0.037 0.388,0.812 0.665,0.781 1.029,-0.07 0.119,-0.275 0.687,-0.381 0.866,-0.813 0.042,0.541 0.086,1.082 0.132,1.679 0.395,-0.335 0.752,-0.989 0.867,0.222 0.326,-0.688 0.556,-1.169 0.829,-1.744 0.41,0.781 0.568,1.567 0.681,2.364 -1.509,-0.252 -2.912,0.702 -4.457,0.348 -0.953,-0.218 -1.487,-0.715 -1.773,-1.698 -0.211,0.458 -0.098,0.987 -0.598,1.342 -0.295,-0.935 -0.913,-1.402 -1.914,-1.258 -0.194,0.027 -0.234,-0.163 -0.205,-0.336 0.396,-0.216 0.214,-0.752 0.618,-1.058 -0.052,1.157 0.967,0.945 1.424,0.908 0.539,-0.042 0.258,-0.756 0.192,-1.205 -0.125,-0.873 -0.806,-1.557 -0.835,-2.463 0.206,-0.024 0.422,-0.033 0.515,-0.274 0.311,0.155 0.184,0.49 0.295,0.726"
         id="path81" />
      <path
         d="m 14.854,86.598 c -0.059,-0.498 0.107,-0.944 0.3,-1.382 0.835,0.119 1.332,0.814 2.067,1.127 0.53,-0.564 -0.496,-1.714 0.732,-2.119 0.122,0.624 0.242,1.244 0.324,1.658 1.455,-0.317 2.53,-1.202 2.999,-2.968 0.601,1.174 0.021,2.586 1.366,3.088 -0.049,0.468 0,0.961 -0.416,1.435 -0.163,-0.408 -0.296,-0.636 -0.848,-0.723 -0.621,-0.098 -1.183,-0.125 -1.8,-0.072 -0.473,0.041 -0.129,0.761 -0.631,0.649 -0.498,-0.11 -1.208,-0.011 -0.885,-1.163 -1.18,1.85 -2.279,1.922 -3.208,0.47"
         id="path83" />
      <path
         d="m 4.036,86.676 c 0.415,-0.373 0.205,-1.015 0.754,-1.421 0.555,-0.412 0.829,-0.75 1.052,0.215 0.434,-0.477 0.6,-0.959 0.618,-1.417 0.869,-0.008 1.053,1.327 2.102,0.961 0.177,-0.062 0.28,0.115 0.338,0.268 0.429,1.106 1.688,0.373 1.77,0.282 0.939,-1.044 1.049,0.528 1.638,0.478 0.107,-0.008 0.246,0.377 0.369,0.58 0.057,0.454 -0.277,0.612 -0.555,0.779 C 11.733,87.046 11.98,85.672 10.766,86.718 10.467,86.977 9.667,86.703 9.073,86.84 8.654,86.936 9.026,86.289 8.716,86.123 8.282,86.184 8.508,86.803 8.089,86.886 7.859,86.854 7.912,86.659 7.886,86.518 7.832,86.219 7.938,85.841 7.502,85.74 7.105,85.647 6.817,85.932 6.754,86.204 6.419,87.642 4.986,87.415 4.141,87.634 3.144,87.89 4.342,87 4.036,86.676"
         id="path85" />
      <path
         d="m 23.569,86.371 c 0.302,-0.228 0.125,-0.608 0.303,-0.925 0.345,0.311 0.332,0.748 0.459,1.144 0.623,-0.37 0.576,-1.112 0.99,-1.861 0.12,0.893 0.218,1.524 1.088,0.711 0.547,-0.509 0.735,-0.3 0.752,0.901 -0.504,0.2 -1.078,0.236 -1.379,0.838 -0.094,0.189 -0.643,0.531 -0.725,0.334 -0.306,-0.739 -0.47,0.667 -0.84,-0.003 -0.204,-0.37 -0.767,-0.551 -0.648,-1.139"
         id="path87" />
      <path
         d="m 27.193,86.41 c 0.776,-0.215 0.863,-0.872 0.908,-1.511 0.045,-0.587 0.01,-1.184 0.191,-1.779 0.04,0.886 0.083,1.773 0.123,2.659 0.627,-0.643 0.308,-1.492 0.766,-2.195 0.794,0.848 0.176,1.733 0.124,2.583 -0.209,0.415 -0.417,0.827 -0.621,1.231 -0.384,-0.056 -0.274,-0.49 -0.563,-0.621 -0.4,0.113 -0.163,0.702 -0.677,0.813 -0.078,-0.375 -0.165,-0.777 -0.251,-1.18"
         id="path89" />
    </g>
    <g
       id="horizon"
       clip-path="url(#ga_clippath)"
       fill-rule="evenodd"
       clip-rule="evenodd"
       fill="none"
       stroke="#ffffff"
       stroke-width="2.2338"
       stroke-miterlimit="10">
      <path
         d="m 24.911,55.725 c 1.033,0.307 1.532,0.036 2.582,-0.38 1.509,-0.596 2.997,0.219 4.505,0.101 0.282,-0.023 0.502,0.313 0.463,0.611 -0.161,1.207 0.731,1.992 1.141,2.968 0.288,0.684 0.76,0.792 1.341,0.401 0.852,-0.571 1.729,-0.468 2.652,-0.228 0.409,0.105 0.658,0.094 0.43,0.665 -0.323,0.802 0.352,0.824 0.773,0.619 0.897,-0.438 1.661,-0.215 2.532,0.084 1.285,0.445 2.692,-0.062 4.015,0.329 0.294,0.087 0.225,0.223 0.873,0.293"
         id="path92" />
      <path
         d="m 46.216,61.189 c 1.867,-0.064 3.771,-0.36 5.36,1.057 0.36,0.322 0.875,0.384 1.371,0.343 2.085,-0.172 4.188,0.03 6.215,0.326 1.898,0.278 3.806,-0.048 5.666,0.413 1.051,0.262 1.966,-0.598 3.089,-0.293 1.215,0.332 2.535,0.209 3.765,0.613 0.699,0.23 1.418,0.323 2.027,-0.261 0.396,-0.38 0.889,-0.304 1.365,-0.31 0.99,-0.016 2.005,0.149 2.871,-0.558 0.255,-0.208 0.629,-0.23 0.921,-0.058 1.481,0.888 3.333,0.672 4.802,1.683 0.605,0.415 1.525,0.251 2.241,0.096 1.082,-0.234 2.237,0.04 3.269,-0.561 0.484,-0.281 0.904,0.155 1.291,0.428 0.982,0.693 1.975,1.077 3.05,0.181 0.162,-0.134 0.369,-0.246 0.545,-0.097 1.388,1.162 2.995,0.312 4.489,0.461 0.458,0.044 0.92,0.022 1.188,0.362 1.022,1.284 2.547,1.188 3.919,1.521 0.251,0.061 0.532,0.109 0.643,-0.142 0.535,-1.222 1.029,-0.402 1.463,0.043 0.773,0.796 1.323,1.8 2.422,2.278 0.526,0.228 0.386,0.836 0.351,1.303 -0.036,0.475 -0.157,0.942 -0.216,1.417 -0.099,0.786 0.007,1.347 1.049,1.052 0.499,-0.143 0.896,0.158 1.275,0.503 2.164,1.953 4.294,3.951 6.545,5.797 1.719,1.411 3.834,2.207 5.803,3.204 0.678,0.343 1.653,0.096 2.493,0.121 1.468,0.041 2.948,0 4.405,0.05 1.787,0.063 3.646,-0.131 4.863,-1.153 1.202,-1.01 3.004,-0.521 3.882,-2.067 0.382,-0.673 0.656,-1.542 1.458,-1.954 0.486,-0.25 0.911,-0.561 1.302,-0.911"
         id="path94" />
    </g>
    <path
       id="shore"
       clip-path="url(#ga_clippath)"
       fill="none"
       stroke="#ffffff"
       stroke-width="1.6753"
       stroke-miterlimit="10"
       d="m 17.824,105.277 c 0,0 2.827,-0.829 14.907,-1.795 12.08,-0.964 18.264,-1.44 30.4,-1.857 12.136,-0.417 26.252,-0.903 31.415,-1.196 5.166,-0.292 17.203,-1.229 25.144,-2.044 7.941,-0.817 11.151,-1.515 18.13,0.003" />
    <g
       id="mountains-2"
       clip-path="url(#ga_clippath)"
       fill-rule="evenodd"
       clip-rule="evenodd"
       fill="#b0c494">
      <path
         d="m 95.26,86.417 c -0.396,-0.168 -0.623,0.132 -0.873,0.354 0,-1.344 0,-2.661 0,-3.976 0.922,-0.001 1.234,-0.546 1.083,-1.685 0.477,0.811 0.08,1.47 0.506,1.949 -0.235,1.116 -0.47,2.232 -0.705,3.348 z"
         id="path98" />
      <path
         d="m 93.09,81.865 c 0.009,0.121 0.045,0.248 0.018,0.358 -0.104,0.423 0.245,1.191 -0.381,1.171 -0.391,-0.01 -0.988,-0.551 -1.047,-1.227 -0.031,-0.349 0.068,-0.735 -0.223,-1.027 0.081,-0.335 0.161,-0.67 0.238,-0.984 0.839,0.331 0.324,1.632 1.395,1.709"
         id="path100" />
      <path
         d="m 94.392,82.308 c 0,-0.151 -0.003,-0.302 -0.003,-0.452 0.098,0.055 0.257,0.091 0.279,0.165 0.059,0.205 -0.108,0.261 -0.276,0.287"
         id="path102" />
      <path
         d="m 94.434,81.038 c 0.016,0.027 0.043,0.053 0.041,0.078 -0.002,0.025 -0.036,0.046 -0.056,0.068 0.005,-0.048 0.009,-0.098 0.015,-0.146"
         id="path104" />
      <path
         d="m 115.375,87.222 c -0.087,0 -0.171,-0.002 -0.255,-0.006 0.086,0.001 0.17,0.004 0.255,0.006"
         id="path106" />
      <path
         d="m 127.635,97.558 c 0.418,-0.015 0.837,-0.046 1.256,-0.051 -0.413,-0.036 -0.832,-0.022 -1.256,0.051 z"
         id="path108" />
      <path
         d="m 96.03,88.845 c -0.37,-0.572 -0.055,-1.163 -0.075,-1.756 0.336,0.562 0.272,1.149 0.075,1.756"
         id="path110" />
      <path
         d="m 95.272,86.409 c 0.05,0.129 0.101,0.259 0.15,0.387 -0.25,-0.041 -0.067,-0.269 -0.161,-0.378 l 0.011,-0.009"
         id="path112" />
      <path
         d="m 73.281,85.905 c -0.109,0.142 -0.222,0.284 -0.332,0.426 -0.048,-0.682 -0.096,-1.364 -0.145,-2.045 0.11,-0.022 0.055,-0.497 0.313,-0.114 0.235,0.348 0.472,0.694 0.709,1.04 -0.082,0.135 -0.163,0.273 -0.244,0.409 -0.099,0.096 -0.201,0.19 -0.301,0.284"
         id="path114" />
      <path
         d="m 77.462,83.279 c 0.25,0.287 0.303,0.592 0.052,1.028 -0.028,-0.406 -0.046,-0.713 -0.065,-1.017 l 0.013,-0.011"
         id="path116" />
    </g>
    <g
       id="reeds-3"
       clip-path="url(#ga_clippath)"
       fill-rule="evenodd"
       clip-rule="evenodd"
       fill="#3b5a2a"
       stroke="#3b5a2a"
       stroke-width="0.5"
       stroke-miterlimit="10">
      <path
         d="m 85.608,86.481 c -0.102,0.29 -0.203,0.582 -0.35,1.001 -0.211,-0.567 -0.091,-1.121 -0.446,-1.481 -0.396,0.595 -0.444,1.23 -0.161,1.948 0.113,0.289 0.119,0.837 -0.306,0.929 -0.528,0.114 -0.489,-0.497 -0.523,-0.758 -0.116,-0.867 -0.109,-1.751 -0.157,-2.792 -0.693,0.835 -0.023,1.831 -0.65,2.6 -0.526,-0.651 -0.419,-1.456 -0.571,-2.18 -0.037,-0.178 0.338,-0.5 -0.146,-0.527 -0.47,-0.024 -0.325,0.319 -0.32,0.589 0.012,0.758 0.114,1.522 -0.082,2.273 -0.041,0.153 -0.132,0.294 -0.33,0.3 -0.8,-0.944 -0.66,-2.122 -0.777,-3.239 -0.035,-0.417 -0.069,-0.836 -0.106,-1.3 0.619,0.094 0.233,0.624 0.522,0.86 0.25,0.085 0.112,-1.36 0.711,-0.241 0.087,-0.111 0.218,-0.21 0.257,-0.335 0.137,-0.449 0.243,-0.907 0.377,-1.427 0.54,0.547 0.302,1.303 0.773,1.804 0.429,-0.394 0.543,-1.05 1.283,-1.411 -0.015,1.278 1.231,2.07 1.002,3.387"
         id="path119" />
      <path
         d="m 80.386,85.145 c -1.18,0.28 -0.732,-0.942 -1.209,-1.31 -0.014,-0.38 -0.188,-0.792 0.283,-1.146 0.61,0.716 0.84,1.556 0.926,2.456"
         id="path121" />
      <path
         d="m 115.48,87.959 c -0.311,-0.069 -0.469,-0.286 -0.555,-0.574 0.064,-0.058 0.131,-0.115 0.195,-0.169 0.083,0.003 0.168,0.004 0.255,0.006 0.035,0.245 0.07,0.491 0.105,0.737"
         id="path123" />
      <path
         d="m 105.848,89.039 c -0.236,0.016 -0.488,0.091 -0.703,0.033 -0.563,-0.152 -1.103,-0.477 -1.571,0.219 -0.082,0.12 -0.454,0.05 -0.615,-0.178 0.084,-0.173 0.235,-0.347 0.239,-0.521 0.019,-0.947 0.581,-1.369 1.399,-1.175 0.741,0.175 1.528,0.553 1.251,1.622"
         id="path125" />
      <path
         d="m 111.219,89.151 c -0.418,0.209 -0.824,0.473 -1.328,0.274 -0.148,-0.612 0.505,-0.755 0.685,-1.176 0.317,0.229 0.674,0.427 0.643,0.902"
         id="path127" />
      <path
         d="m 108.056,89.242 c -0.569,0.007 -1.137,0.017 -1.705,0.023 0.598,-0.776 1.316,-0.786 1.705,-0.023"
         id="path129" />
    </g>
    <use
       xlink:href="#ga_outline"
       overflow="visible"
       fill="none"
       stroke="#000000"
       stroke-width="0.2513"
       stroke-miterlimit="10"
       id="use132"
       x="0"
       y="0"
       width="100%"
       height="100%" />
    <path
       id="tybee_island"
       fill="#5aafd1"
       stroke="#000000"
       stroke-width="0.25"
       stroke-miterlimit="10"
       d="m 132.343,99.167 c 0,0.369 0.185,0.69 0.459,0.69 0.275,0 0.458,-0.321 0.458,-0.69 0,-0.368 -0.183,-0.688 -0.458,-0.688 -0.274,0 -0.459,0.32 -0.459,0.688 z" />
    <path
       id="st_catherines_island"
       fill="#5aafd1"
       stroke="#000000"
       stroke-width="0.25"
       stroke-miterlimit="10"
       d="m 126.144,109.454 c -0.138,0.229 -0.094,0.55 0.137,0.688 0.23,0.138 0.413,-0.044 0.413,-0.413 0,-0.782 -0.138,-0.873 -0.55,-0.275 z" />
    <path
       id="sapelo_island"
       fill="#5aafd1"
       stroke="#000000"
       stroke-width="0.25"
       stroke-miterlimit="10"
       d="m 123.985,114.182 c -0.965,1.149 -1.01,1.562 -0.368,1.976 0.276,0.137 0.46,0 0.46,-0.367 0,-0.368 0.32,-0.918 0.688,-1.24 0.735,-0.597 0.919,-1.377 0.367,-1.377 -0.229,-0.001 -0.735,0.458 -1.147,1.008 z" />
    <path
       id="st_simons_island"
       fill="#5aafd1"
       stroke="#000000"
       stroke-width="0.25"
       stroke-miterlimit="10"
       d="m 121.321,120.566 c 0,0.459 -0.229,0.872 -0.505,0.872 -0.276,0 -0.414,0.459 -0.323,1.011 0.093,0.597 0.323,1.056 0.598,1.056 0.276,0 0.644,-0.459 0.919,-1.056 0.23,-0.551 0.595,-1.011 0.78,-1.011 0.78,0 0.322,-1.286 -0.55,-1.514 -0.689,-0.184 -0.919,10e-4 -0.919,0.642 z" />
    <path
       id="cumberland_island"
       fill="#5aafd1"
       stroke="#000000"
       stroke-width="0.25"
       stroke-miterlimit="10"
       d="m 119.531,131.219 c -0.321,0.415 -0.459,1.148 -0.275,1.562 0.275,0.781 0.32,0.781 0.735,0 0.274,-0.459 0.412,-1.147 0.321,-1.562 -0.139,-0.686 -0.184,-0.686 -0.781,0 z" />
  </g>
  <ellipse
     style="display:none;fill:#ff0000;fill-opacity:0.00401605;stroke:#808080;stroke-width:0.983819"
     id="path921"
     cx="125"
     cy="124.99999"
     rx="122.5081"
     ry="122.50809"
     inkscape:export-filename="D:\projects\gaepd-brand\epd-icon\epd-icon-circle-250.png"
     inkscape:export-xdpi="96"
     inkscape:export-ydpi="96" />
</svg>
